<svg width="982" height="481" viewBox="0 0 982 481" fill="none" xmlns="http://www.w3.org/2000/svg">
<path d="M588.433 209.589C589.397 209.238 590.341 208.837 591.262 208.388C591.308 208.458 591.354 208.529 591.4 208.598L588.433 209.589Z" fill="#E6E6E6"/>
<path d="M646.646 231.239C648.104 231.239 649.503 231.803 650.534 232.807C651.566 233.81 652.145 235.171 652.145 236.591V288.359H757.626C759.084 288.359 760.483 288.923 761.514 289.926C762.545 290.93 763.125 292.291 763.125 293.711C763.125 295.13 762.545 296.491 761.514 297.495C760.483 298.498 759.084 299.062 757.626 299.062H652.145V478.09H641.147V236.591C641.147 235.171 641.726 233.81 642.758 232.807C643.789 231.803 645.188 231.239 646.646 231.239Z" fill="#3F3D56"/>
<path d="M653.145 478.09V300.062H757.626C759.341 300.062 760.991 299.399 762.211 298.211C763.433 297.022 764.125 295.404 764.125 293.711C764.125 292.017 763.433 290.399 762.211 289.21C760.991 288.022 759.341 287.359 757.626 287.359H653.145L653.145 236.591C653.145 234.897 652.453 233.279 651.232 232.09C650.011 230.902 648.361 230.239 646.646 230.239C644.931 230.239 643.281 230.902 642.06 232.09C640.838 233.279 640.147 234.897 640.147 236.591V236.591V478.09V479.09H641.147H652.145H653.145V478.09Z" stroke="white" stroke-opacity="0.54" stroke-width="2"/>
<path d="M855.754 459.516H833.758V303.959C852.157 302.675 865.985 297.192 865.985 290.622C865.985 283.099 847.856 277 825.493 277C803.129 277 785 283.099 785 290.622C785 297.255 799.097 302.778 817.761 303.992V459.516H795.765C793.644 459.516 791.61 460.336 790.11 461.796C788.61 463.255 787.767 465.235 787.767 467.3C787.767 469.364 788.61 471.344 790.11 472.804C791.61 474.263 793.644 475.084 795.765 475.084H855.754C857.876 475.084 859.91 474.263 861.41 472.804C862.91 471.344 863.753 469.364 863.753 467.3C863.753 465.235 862.91 463.255 861.41 461.796C859.91 460.336 857.876 459.516 855.754 459.516Z" fill="#989898" fill-opacity="0.59"/>
<path d="M803.723 382.173L796.497 389.835L762.69 366.361L773.353 355.052L803.723 382.173Z" fill="#A0616A"/>
<path d="M785.248 402.397C785.319 404.11 785.738 405.793 786.483 407.347C787.227 408.902 788.28 410.297 789.583 411.453L789.901 411.741L799.377 401.691L813.195 387.035L802.994 377.921L801.152 379.879L800.96 380.081L791.78 384.306L789.834 385.206L789.501 385.357L788.769 393.009V393.017C787.572 394.275 786.644 395.752 786.04 397.362C785.435 398.973 785.166 400.684 785.248 402.397V402.397Z" fill="#2F2E41"/>
<path d="M841.156 458.611L830.931 461.634L814.084 424.692L829.175 420.231L841.156 458.611Z" fill="#A0616A"/>
<path d="M813.676 476.824L813.801 477.235L846.771 467.488L842.747 454.595L840.143 455.365L839.869 455.444L827.612 454.35L827.25 454.321L822.612 460.548C819.209 461.554 816.356 463.833 814.68 466.885C813.004 469.938 812.643 473.513 813.676 476.824H813.676Z" fill="#2F2E41"/>
<g filter="url(#filter0_d_1017_3691)">
<path d="M756.841 265.187C756.841 265.187 691.559 326.525 732.83 345.512H745.585C748.358 336.741 752.62 328.484 758.194 321.083C759.4 319.548 763.914 319.86 765.168 318.364C772.824 309.231 781.124 301.387 786.856 301.698L785.484 344.079L783.265 359.197C782.1 367.012 814.987 435.246 814.987 435.246L835.657 427.34C835.657 427.34 814.121 371.139 813.869 363.037L831.127 273.949L756.841 265.187Z" fill="#3F3D56"/>
</g>
<path d="M751.398 268.212C751.731 268.674 752.165 269.058 752.67 269.335C753.502 269.793 754.403 270.118 755.34 270.3C770.039 273.546 818.055 280.277 830.519 277.066C832.05 276.678 833.049 276.131 833.374 275.411C834.418 273.136 834.284 263.526 833.67 251.921C833.559 249.747 831.096 247.393 830.948 245.118C830.845 243.412 833.056 241.807 832.938 240.072C832.124 228.338 831.074 216.381 830.371 208.823C829.927 203.963 829.624 200.926 829.624 200.926L837.206 154.4L836.851 153.831L836.452 153.637L812.004 141.86L810.672 138.549C810.286 137.595 809.616 136.776 808.747 136.197C807.878 135.619 806.85 135.307 805.797 135.302L789.694 135.237C788.858 135.233 788.034 135.422 787.289 135.79C786.544 136.159 785.9 136.694 785.411 137.354L781.046 143.235L752.197 161.232L752.308 161.563L765.845 201.653L765.911 204.777V204.784L766.414 229.908L765.016 233.313L766.592 238.899C766.592 238.899 765.867 245.428 761.983 250.28C758.462 254.686 753.979 259.278 751.953 263.007V263.015C750.828 265.073 750.451 266.859 751.398 268.212Z" fill="#3AA8F0"/>
<path d="M729.695 341.868L733.185 346.159C733.185 346.159 765.277 368.008 766.379 370.05L771.45 374.72L783.722 361.955L777.34 354.17C772.233 347.941 765.635 343.025 758.123 339.853V339.853L748.342 331.408L729.695 341.868Z" fill="#3F3D56"/>
<path d="M845.293 282.704L839.449 227.655L837.906 204.998L854.264 202.12C854.264 202.12 853.616 218.32 855.759 227.46C857.873 236.479 856.039 281.495 855.908 282.699C857.11 283.744 857.957 285.12 858.337 286.643C858.717 288.167 858.613 289.768 858.039 291.233C857.464 292.698 856.446 293.959 855.119 294.849C853.792 295.739 852.219 296.216 850.607 296.216C848.996 296.217 847.422 295.742 846.094 294.853C844.766 293.965 843.747 292.705 843.171 291.24C842.595 289.775 842.489 288.175 842.868 286.651C843.247 285.126 844.093 283.75 845.293 282.703V282.704Z" fill="#A0616A"/>
<path d="M825.814 199.335L830.371 208.823L831.962 212.127L836.245 233.953L838.382 236.163L840.224 243.297L841.09 243.125L856.698 239.979L861.247 239.065C862.273 237.402 862.677 235.446 862.391 233.527C862.105 231.608 861.147 229.844 859.679 228.533C859.369 228.259 859.11 227.993 859.117 227.741C859.376 212.559 858.422 184.836 849.804 173.427C847.067 169.806 845.425 166.199 843.035 163.679C843.028 163.672 843.028 163.665 843.021 163.665L837.206 154.4L836.851 153.832L836.452 153.637L825.814 199.335Z" fill="#3AA8F0"/>
<path d="M799.005 131.338C810.838 131.338 820.432 122.002 820.432 110.486C820.432 98.9701 810.838 89.6345 799.005 89.6345C787.171 89.6345 777.578 98.9701 777.578 110.486C777.578 122.002 787.171 131.338 799.005 131.338Z" fill="#A0616A"/>
<path d="M824.448 106C825.075 102.496 825.564 97.9531 823.767 93.9149C822.247 90.5164 818.447 87.3301 814.223 87.7599C814.424 86.9928 814.401 86.1866 814.159 85.431C813.917 84.6754 813.464 84 812.851 83.4798C811.475 82.4289 809.873 81.6956 808.164 81.3351C804.193 80.1995 800.081 79.0222 795.834 79.0003C791.069 78.9751 786.846 80.5639 784.256 83.3653L784.193 83.4559L783.417 85.2595C783.313 85.5014 783.156 85.7186 782.958 85.8962C782.76 86.0738 782.525 86.2075 782.268 86.2882C782.011 86.3706 781.739 86.3968 781.47 86.3648C781.202 86.3328 780.944 86.2434 780.715 86.1031C780.464 85.9528 780.177 85.8688 779.882 85.8595C779.587 85.8502 779.295 85.9159 779.035 86.0501C778.774 86.1843 778.554 86.3824 778.396 86.6247C778.238 86.8671 778.148 87.1453 778.135 87.4319L778.093 88.2016L776.981 87.7703C776.703 87.6606 776.399 87.6254 776.101 87.6682C775.804 87.7111 775.523 87.8304 775.289 88.0139C775.055 88.1974 774.875 88.4385 774.769 88.7122C774.662 88.9859 774.633 89.2823 774.683 89.5708L774.831 90.4863C774.592 90.4441 774.347 90.4492 774.11 90.5012C773.873 90.5532 773.649 90.6511 773.452 90.789C773.169 90.9911 772.96 91.2752 772.854 91.6004C772.748 91.9257 772.751 92.2753 772.862 92.5988C773.725 94.9939 775.199 97.1364 777.146 98.8254C778.019 99.5938 778.998 100.241 780.053 100.749C780.273 100.857 780.501 100.959 780.738 101.055C789.277 104.618 798.413 106.632 807.696 106.998C806.818 108.628 806.251 110.399 806.022 112.225C805.895 113.261 806.063 114.312 806.506 115.262C806.949 116.213 807.651 117.027 808.536 117.617C808.92 117.83 809.323 118.01 809.74 118.154C810.138 118.297 810.524 118.47 810.894 118.674C811.436 118.993 811.882 119.445 812.187 119.986C812.491 120.527 812.644 121.136 812.629 121.752C812.614 122.369 812.432 122.971 812.101 123.496C811.77 124.022 811.303 124.454 810.746 124.748C810.746 124.748 812.34 126.642 812.595 126.61C813.611 126.386 814.529 125.857 815.22 125.099C819.86 120.714 822.965 114.292 824.448 106Z" fill="#2F2E41"/>
<path d="M982 478.489C982.001 478.687 981.961 478.884 981.883 479.068C981.805 479.251 981.691 479.418 981.546 479.559C981.402 479.699 981.231 479.81 981.042 479.886C980.853 479.962 980.651 480.001 980.447 480H128.553C128.141 480 127.746 479.841 127.455 479.557C127.164 479.274 127 478.89 127 478.489C127 478.088 127.164 477.704 127.455 477.42C127.746 477.137 128.141 476.978 128.553 476.978H980.447C980.651 476.977 980.853 477.016 981.042 477.091C981.231 477.167 981.402 477.278 981.546 477.419C981.691 477.559 981.805 477.726 981.883 477.91C981.961 478.093 982.001 478.29 982 478.489V478.489Z" fill="#CCCCCC"/>
<path d="M730.491 272.284C723.078 272.141 683.26 271.028 676.73 271.302C676.361 270.044 663.983 285.481 663.682 285.576C663.481 285.783 663.335 286.033 663.255 286.306C663.176 286.579 663.165 286.867 663.224 287.145C663.284 287.423 663.411 287.683 663.596 287.902C663.781 288.122 664.018 288.294 664.287 288.405C665.014 288.836 729.206 287.68 729.984 287.831C730.321 287.826 730.649 287.728 730.931 287.549C731.213 287.371 731.437 287.118 731.578 286.821L732.007 285.885C732.051 284.285 732.59 276.109 732.106 274.711C732.225 274.448 732.275 274.161 732.251 273.876C732.227 273.59 732.131 273.314 731.971 273.074C731.811 272.833 731.592 272.635 731.333 272.497C731.075 272.359 730.786 272.286 730.491 272.284V272.284Z" fill="#E6E6E6"/>
<path opacity="0.17" d="M732.007 285.884C731.63 286.765 731.148 287.872 729.984 287.831L664.964 288.541C664.657 288.538 664.355 288.458 664.089 288.308C663.822 288.159 663.6 287.945 663.443 287.688C663.286 287.431 663.199 287.139 663.191 286.839C663.184 286.54 663.255 286.244 663.399 285.98L732.007 285.884Z" fill="black"/>
<path d="M677.034 271.113C676.334 269.935 658.951 186.232 657.501 185.532L645.632 171.403L644.572 170.627C643.097 169.838 639.558 170.371 639.877 172.564C642.665 185.573 660.599 259.664 660.992 271.215L663.15 285.93C663.189 286.181 663.281 286.42 663.42 286.634C663.56 286.848 663.744 287.031 663.961 287.171C664.177 287.311 664.422 287.406 664.678 287.448C664.935 287.491 665.197 287.481 665.45 287.419C666.068 287.354 666.659 287.133 667.164 286.778C667.668 286.424 668.069 285.947 668.326 285.396C668.488 284.877 677.847 271.414 677.034 271.113Z" fill="#E6E6E6"/>
<path opacity="0.17" d="M645.63 171.404L668.329 285.399C667.57 287.268 664.018 288.578 663.19 286.126C663.176 286.122 639.903 172.634 639.88 172.566C639.632 169.835 644.269 169.748 645.63 171.404Z" fill="black"/>
<path d="M646.314 176.065L657.842 191.703L670.781 251.507L664.766 256.613L646.314 176.065Z" fill="#1272E7"/>
<path d="M723.049 280.348L726.239 280.475C726.289 279.566 726.443 278.665 726.699 277.789C727.179 275.571 727.608 272.934 725.619 272.944C724.269 272.817 723.809 274.481 723.569 276.291C723.507 277.655 723.333 279.011 723.049 280.348Z" fill="#2F2E41"/>
<path d="M704.753 276.174L706.902 276.252L707.942 276.291C707.922 275.181 708.452 272.895 707.162 272.331C706.957 272.245 706.736 272.202 706.513 272.204C705.303 272.136 704.943 273.031 704.833 274.063C704.763 274.685 704.793 275.347 704.773 275.863C704.773 275.97 704.763 276.077 704.753 276.174Z" fill="#2F2E41"/>
<path d="M698.384 275.921L700.544 276.009L701.573 276.048C701.553 274.773 702.243 271.99 700.144 271.951C698.204 271.844 698.454 274.247 698.404 275.61C698.404 275.717 698.394 275.824 698.384 275.921Z" fill="#2F2E41"/>
<path d="M692.015 275.678L694.165 275.756L695.205 275.795C695.185 274.53 695.875 271.747 693.775 271.708C691.835 271.591 692.085 273.995 692.035 275.367C692.035 275.474 692.025 275.581 692.015 275.678Z" fill="#2F2E41"/>
<path d="M685.646 275.425L687.806 275.512L688.836 275.551C688.816 274.277 689.506 271.504 687.406 271.455C685.466 271.348 685.716 273.751 685.666 275.114C685.666 275.221 685.656 275.328 685.646 275.425Z" fill="#2F2E41"/>
<path d="M679.278 275.182L681.427 275.259L682.467 275.298C682.447 274.131 683.027 271.689 681.487 271.27H681.477C681.335 271.229 681.186 271.209 681.037 271.212C680.856 271.196 680.673 271.213 680.498 271.26H680.488C679.148 271.601 679.338 273.644 679.298 274.87C679.298 274.977 679.288 275.084 679.278 275.182Z" fill="#2F2E41"/>
<path d="M716.621 274.52L719.81 274.646C719.81 274.53 719.81 274.403 719.82 274.257C719.899 273.517 719.912 272.771 719.86 272.029C719.75 271.212 719.39 270.57 718.38 270.55C717.35 270.492 716.941 271.134 716.781 271.961C716.743 272.102 716.717 272.245 716.701 272.389V272.399C716.621 273.158 716.671 273.975 716.621 274.52Z" fill="#2F2E41"/>
<path d="M710.252 274.267L713.441 274.394C713.509 273.559 713.529 272.72 713.501 271.883C713.411 271.027 713.061 270.327 712.012 270.307C710.952 270.239 710.542 270.94 710.382 271.805C710.232 272.642 710.312 273.644 710.252 274.267Z" fill="#2F2E41"/>
<path d="M703.883 274.024L704.833 274.063L707.072 274.15C707.062 273.683 707.152 273.002 707.162 272.331C707.171 272.129 707.164 271.928 707.142 271.728C707.062 270.823 706.732 270.073 705.643 270.054C704.533 269.996 704.143 270.745 704.003 271.659C703.863 272.477 703.943 273.42 703.883 274.024Z" fill="#2F2E41"/>
<path d="M716.681 280.105L719.87 280.221C719.86 278.957 720.54 276.174 718.44 276.135C716.341 276.008 716.801 278.83 716.681 280.105Z" fill="#2F2E41"/>
<path d="M710.312 279.852L713.501 279.978C713.491 278.704 714.171 275.921 712.072 275.882C709.972 275.765 710.432 278.587 710.312 279.852Z" fill="#2F2E41"/>
<path d="M703.943 279.608L707.133 279.725C707.123 278.82 707.472 277.147 706.903 276.252C706.778 276.053 706.601 275.892 706.39 275.784C706.178 275.676 705.941 275.626 705.703 275.639C705.375 275.605 705.046 275.684 704.773 275.863C703.753 276.514 704.043 278.577 703.943 279.608Z" fill="#2F2E41"/>
<path d="M697.574 279.356L700.764 279.482C700.754 278.577 701.093 276.914 700.544 276.009C700.419 275.807 700.241 275.643 700.028 275.533C699.815 275.424 699.575 275.373 699.334 275.386C699.006 275.351 698.677 275.43 698.404 275.61C697.384 276.281 697.674 278.334 697.574 279.356Z" fill="#2F2E41"/>
<path d="M691.205 279.113L694.395 279.229C694.385 278.324 694.735 276.651 694.165 275.756C694.04 275.558 693.863 275.396 693.652 275.288C693.441 275.18 693.203 275.13 692.965 275.143C692.638 275.109 692.309 275.188 692.035 275.367C691.015 276.019 691.305 278.081 691.205 279.113Z" fill="#2F2E41"/>
<path d="M684.836 278.859L688.026 278.986C688.016 278.081 688.356 276.417 687.806 275.512C687.683 275.31 687.504 275.145 687.291 275.035C687.078 274.925 686.837 274.875 686.596 274.889C686.269 274.854 685.939 274.934 685.666 275.113C684.646 275.785 684.936 277.838 684.836 278.859Z" fill="#2F2E41"/>
<path d="M678.468 278.616L681.657 278.733C681.647 277.828 681.987 276.164 681.427 275.259C681.304 275.06 681.127 274.898 680.915 274.79C680.704 274.682 680.466 274.632 680.227 274.647C679.9 274.613 679.571 274.692 679.298 274.87C678.278 275.532 678.568 277.585 678.468 278.616Z" fill="#2F2E41"/>
<path d="M714.487 269.622L738.796 219.591L747.987 198.721L733.542 190.716C733.542 190.716 728.621 206.205 723.479 214.133C718.405 221.956 704.764 265.007 704.477 266.185C702.987 266.782 701.718 267.806 700.839 269.12C699.96 270.434 699.512 271.977 699.553 273.545C699.595 275.113 700.125 276.631 701.072 277.9C702.02 279.168 703.341 280.127 704.861 280.648C706.381 281.17 708.027 281.231 709.583 280.822C711.139 280.413 712.53 279.555 713.574 278.359C714.617 277.164 715.263 275.689 715.426 274.129C715.589 272.569 715.262 270.997 714.487 269.622H714.487Z" fill="#A0616A"/>
<path d="M714.339 223.301L732.723 234.094L736.893 227.962L739.669 226.568L751.162 207.364L761.322 197.29L774.747 155.53L757.28 158.08L757.257 158.088C754.146 159.694 751.362 162.565 747.546 165.096C735.522 173.07 725.155 198.909 720.216 213.315C720.135 213.552 719.802 213.717 719.416 213.878C717.584 214.64 716.079 215.993 715.154 217.71C714.229 219.427 713.941 221.401 714.339 223.301Z" fill="#3AA8F0"/>
<g clip-path="url(#clip0_1017_3691)">
<path d="M571.126 456.747L575.008 455.197C534.391 355.221 538.304 229.093 572.638 120.897C576.717 108.361 577.011 94.9162 573.485 82.2165C569.958 69.5169 562.765 58.1165 552.79 49.4179C532.861 31.7823 505.387 27.4862 481.084 38.2048C457.095 48.7867 453.788 67.2187 453.788 85.561H457.974C457.974 65.9815 462.193 51.0802 482.785 41.9969C505.563 31.9516 531.319 35.9807 550.003 52.5149C559.372 60.6848 566.129 71.3924 569.441 83.3204C572.753 95.2484 572.477 107.876 568.646 119.651C533.915 229.096 530.232 356.09 571.126 456.747Z" fill="#2F2E41"/>
<path d="M454.02 151.118C462.58 151.118 469.519 144.059 469.519 135.351C469.519 126.644 462.58 119.585 454.02 119.585C445.46 119.585 438.521 126.644 438.521 135.351C438.521 144.059 445.46 151.118 454.02 151.118Z" fill="#FED70A"/>
<path d="M430.451 139.493V109.619H435.018V139.493C436.327 140.032 437.412 141.018 438.086 142.281C438.76 143.544 438.981 145.007 438.711 146.418C438.441 147.828 437.697 149.1 436.607 150.014C435.516 150.928 434.147 151.428 432.734 151.428C431.321 151.428 429.952 150.928 428.862 150.014C427.772 149.1 427.028 147.828 426.758 146.418C426.488 145.007 426.709 143.544 427.383 142.281C428.056 141.018 429.141 140.032 430.451 139.493Z" fill="#81E169"/>
<path d="M409.682 99.2387C409.69 94.505 412.384 89.9667 417.173 86.6195C421.962 83.2723 428.456 81.3894 435.229 81.384H477.437C484.213 81.384 490.711 83.2651 495.502 86.6135C500.293 89.9619 502.984 94.5033 502.984 99.2387C502.984 103.974 500.293 108.515 495.502 111.864C490.711 115.212 484.213 117.093 477.437 117.093H435.229C428.456 117.088 421.962 115.205 417.173 111.858C412.384 108.511 409.69 103.972 409.682 99.2387Z" fill="#E1A793"/>
<path d="M280.058 243.455C284.282 188.483 305.878 162.292 292.05 145.867C278.803 130.134 241.491 133.384 217.529 148.481C152.897 189.201 129.218 351.495 212.39 430.788C291.424 506.136 441.209 482.003 474.496 420.332C482.263 405.942 488.433 380.716 477.066 365.439C448.844 327.51 346.236 396.21 300.615 353.24C273.579 327.775 277.74 273.623 280.058 243.455Z" fill="#DD6E55"/>
<path d="M329.463 216.144C327.893 216.879 326.667 218.208 326.046 219.848C325.424 221.488 325.457 223.31 326.136 224.926C326.279 225.252 326.448 225.566 326.642 225.864L312.77 244.706L319.692 255.231L335.952 227.329C337.104 226.415 337.926 225.139 338.29 223.7C338.655 222.261 338.54 220.739 337.965 219.373C337.63 218.599 337.149 217.9 336.548 217.315C335.948 216.73 335.24 216.271 334.465 215.964C333.691 215.658 332.864 215.509 332.033 215.528C331.202 215.546 330.382 215.731 329.621 216.071C329.568 216.095 329.516 216.119 329.463 216.144Z" fill="#A0616A"/>
<path d="M329.452 248.631C330.36 249.45 327.842 250.461 325.178 248.866C324.415 248.405 324.09 248.213 324.004 248.335C323.79 248.64 325.041 250.888 324.707 255.88C324.501 258.86 319.636 264.463 314.111 269.926C306.642 277.315 297.956 284.442 297.956 284.442L294.907 281.959L262.932 255.88L257.535 248.283C258.03 245.282 258.772 242.33 259.754 239.456C261.107 235.479 262.715 231.596 264.568 227.833C265.561 225.785 266.581 223.833 267.557 222.039L284.688 241.242L299.044 257.327C299.044 257.327 303.224 250.478 306.462 248.614C306.875 248.345 307.345 248.181 307.833 248.134C311.105 247.978 311.302 246.165 307.507 242.218C303.712 238.271 308.501 241.957 311.875 240.894C315.25 239.831 311.875 240.894 312.586 238.236C313.297 235.579 322.762 230.246 322.762 230.246L323.156 230.604L330.309 237.025L332.356 238.864C332.356 238.864 330.12 245.102 329.503 246.418C328.887 247.734 328.553 247.803 329.452 248.631Z" fill="#94D0EB"/>
<path d="M517.995 369.671L518.343 360.06L482.067 354.118L481.552 368.302L517.995 369.671Z" fill="#A0616A"/>
<path d="M511.41 372.564L511.066 357.176L517.533 357.419L527.973 343.193C528.489 342.49 529.212 341.973 530.036 341.718C530.861 341.463 531.744 341.483 532.557 341.774C533.37 342.066 534.07 342.614 534.555 343.339C535.04 344.064 535.284 344.928 535.252 345.804L534.589 364.084L528.078 366.995L534.43 368.465L534.18 375.357L511.41 372.564Z" fill="#2F2E41"/>
<path d="M428.757 375.877L428.749 375.876L428.741 375.876L314.513 372.93L330.07 326.022L330.071 326.022L331.291 326.212C332.361 326.378 333.93 326.621 335.927 326.932C339.923 327.552 345.635 328.441 352.499 329.51C366.227 331.648 384.563 334.511 403 337.41C421.436 340.308 439.971 343.242 454.096 345.521C461.159 346.661 467.117 347.638 471.41 348.364C473.556 348.727 475.284 349.028 476.524 349.255C477.144 349.369 477.64 349.464 478.004 349.539C478.384 349.617 478.585 349.666 478.645 349.688C480.196 350.239 481.048 350.525 482.037 350.23C482.506 350.089 482.985 349.826 483.573 349.469C483.812 349.324 484.064 349.167 484.344 348.993C484.785 348.718 485.295 348.4 485.931 348.019C486.443 347.713 486.835 347.49 487.139 347.335C487.45 347.177 487.641 347.105 487.759 347.079C487.78 347.074 487.797 347.072 487.809 347.07C487.822 347.089 487.843 347.122 487.873 347.178C487.898 347.225 487.926 347.284 487.959 347.353C488.087 347.62 488.284 348.032 488.626 348.456C489.069 349.006 489.754 349.59 490.892 350.13C493.132 351.191 496.16 351.694 498.586 351.937C499.808 352.059 500.892 352.117 501.672 352.144C501.964 352.154 502.213 352.16 502.411 352.163L501.78 369.569L489.924 371.091L489.808 371.106L489.711 371.17C488.322 372.09 486.333 372.87 483.884 373.522C481.442 374.172 478.572 374.686 475.44 375.09C469.178 375.896 461.905 376.253 454.983 376.37C448.064 376.487 441.507 376.364 436.678 376.211C434.264 376.135 432.283 376.051 430.906 375.986C430.217 375.954 429.68 375.927 429.314 375.907C429.132 375.898 428.992 375.89 428.898 375.885L428.792 375.879L428.766 375.877L428.759 375.877L428.757 375.877C428.757 375.877 428.757 375.877 428.728 376.376L428.757 375.877ZM487.837 347.069C487.837 347.069 487.836 347.069 487.834 347.069L487.837 347.069Z" fill="#F5F5F5" stroke="black"/>
<path d="M465.236 365.452L471.918 358.648L449.296 329.194L439.435 339.237L465.236 365.452Z" fill="#A0616A"/>
<path d="M458.474 359.533L468.51 348.014L473.089 352.666L490.254 349.46C491.102 349.302 491.977 349.423 492.753 349.807C493.528 350.19 494.162 350.816 494.563 351.592C494.964 352.368 495.111 353.254 494.981 354.121C494.852 354.988 494.454 355.79 493.844 356.41L481.136 369.353L474.417 366.982L478.091 372.454L473.299 377.334L458.474 359.533Z" fill="#2F2E41"/>
<path d="M378.579 317.284C378.805 316.838 378.805 316.838 378.805 316.838L378.808 316.839L378.816 316.844L378.848 316.86L378.976 316.925L379.476 317.179L381.388 318.15C383.041 318.989 385.417 320.197 388.31 321.668C394.094 324.61 401.944 328.607 410.205 332.827C426.388 341.093 444.156 350.217 451.048 353.929C451.125 353.806 451.219 353.657 451.328 353.483C451.663 352.947 452.142 352.181 452.713 351.263C453.856 349.426 455.37 346.98 456.856 344.541C458.343 342.1 459.799 339.67 460.826 337.865C461.341 336.961 461.743 336.223 461.988 335.721C462.037 335.619 462.078 335.531 462.112 335.456C461.939 335.358 461.71 335.218 461.431 335.041C460.843 334.669 460.011 334.12 458.972 333.422C456.895 332.023 453.978 330.016 450.505 327.602C443.559 322.776 434.382 316.321 425.235 309.861C416.087 303.401 406.967 296.934 400.134 292.082C396.718 289.656 393.873 287.634 391.882 286.219C390.887 285.511 390.105 284.955 389.572 284.575L388.964 284.142L388.808 284.031L388.768 284.003L388.758 283.996L388.756 283.994C388.755 283.994 388.755 283.994 389.045 283.587L388.755 283.994L388.718 283.968L388.687 283.935L388.687 283.935L388.686 283.935L388.686 283.934L388.68 283.929L388.657 283.906C388.636 283.885 388.604 283.853 388.561 283.811C388.475 283.727 388.344 283.604 388.173 283.45C387.829 283.14 387.32 282.704 386.662 282.205C385.345 281.205 383.44 279.956 381.088 278.954C376.433 276.973 370.036 275.963 362.931 279.776C362.886 279.978 362.864 280.123 362.855 280.224L363.625 280.345L362.773 281.052L314.219 321.296L313.741 321.693L313.456 321.141L306.743 308.172L269.015 309.878L270.136 336.39C271.466 367.831 305.489 386.813 331.836 370.427C332.324 370.123 332.813 369.809 333.305 369.483L333.371 369.439L333.449 369.418L333.449 369.418L333.449 369.418L333.45 369.418L333.455 369.416L333.475 369.411C333.493 369.406 333.52 369.398 333.556 369.388C333.628 369.367 333.734 369.336 333.869 369.295C334.14 369.212 334.528 369.089 334.993 368.928C335.925 368.604 337.159 368.13 338.38 367.523C339.605 366.914 340.79 366.185 341.642 365.361C342.498 364.534 342.956 363.676 342.894 362.793C342.735 360.516 343.291 358.737 344.265 357.673C345.236 356.614 346.602 356.305 347.885 356.951C347.944 356.925 348.035 356.874 348.161 356.783C348.455 356.571 348.851 356.213 349.341 355.711C350.317 354.712 351.603 353.209 353.097 351.358C356.083 347.659 359.862 342.61 363.579 337.517C367.294 332.425 370.941 327.296 373.66 323.439C375.019 321.51 376.146 319.9 376.933 318.772C377.327 318.208 377.636 317.765 377.846 317.463L378.086 317.118L378.147 317.029L378.162 317.007L378.166 317.001L378.167 317C378.167 316.999 378.168 316.999 378.579 317.284ZM378.579 317.284L378.805 316.838L378.416 316.641L378.168 316.999L378.579 317.284ZM347.829 356.971C347.829 356.971 347.831 356.971 347.835 356.97C347.831 356.971 347.829 356.972 347.829 356.971Z" fill="white" stroke="black"/>
<path d="M314.274 275.633C314.182 276.881 314.007 278.121 313.751 279.345C313.402 281.117 312.838 282.837 312.072 284.468C312.072 284.468 312.072 286.289 308.646 292.389C305.22 298.488 309.503 295.874 312.072 300.405C314.642 304.927 312.072 302.844 309.22 305.755C308.399 306.601 307.816 307.657 307.531 308.81C307.246 309.964 307.27 311.175 307.601 312.316C307.601 312.316 270.803 312.342 263.951 309.728C257.099 307.114 255.54 292.389 261.681 290.934C267.814 289.478 259.822 288.032 256.216 284.677C252.61 281.323 259.822 275.834 259.822 275.834C259.822 275.834 256.85 270.614 257.098 253.092C257.134 251.481 257.28 249.873 257.535 248.283C258.029 245.282 258.772 242.33 259.754 239.456C261.107 235.479 262.715 231.596 264.568 227.833C265.561 225.785 266.581 223.833 267.557 222.039C267.711 221.76 267.857 221.49 268.011 221.22C269.87 217.874 271.566 215.138 272.688 213.386C273.553 212.027 274.075 211.26 274.075 211.26L280.311 200.229L301.126 210.154L299.943 226.386L303.532 238.628L305.186 244.266L306.462 248.614L308.432 255.349C308.432 255.349 307.892 255.375 308.535 256.272C311.493 260.274 313.411 264.97 314.111 269.926C314.358 271.818 314.412 273.73 314.274 275.633Z" fill="#94D0EB"/>
<path d="M374.383 277.383L373.993 277.254L324.174 260.935L342.532 199.672C342.898 198.452 343.531 197.332 344.383 196.397C345.236 195.462 346.287 194.736 347.455 194.274C348.624 193.812 349.88 193.626 351.13 193.73C352.379 193.834 353.59 194.225 354.669 194.874L386.505 214.007C389.025 215.52 390.942 217.885 391.922 220.69C392.901 223.495 392.881 226.561 391.864 229.352L374.383 277.383Z" fill="#2F2E41"/>
<path d="M374.585 281.277L324.366 264.827L342.724 203.563C343.09 202.343 343.723 201.224 344.575 200.289C345.428 199.354 346.478 198.628 347.647 198.166C348.816 197.704 350.072 197.518 351.322 197.622C352.571 197.726 353.782 198.117 354.861 198.765L388.217 215.706C393.228 218.717 393.111 226.51 390.784 232.904L374.585 281.277Z" fill="white"/>
<path d="M369.558 285.712C368.401 286.375 367.122 286.787 365.8 286.921C364.479 287.054 363.145 286.907 361.883 286.488L329.784 275.973C327.321 275.155 325.271 273.389 324.07 271.053C322.87 268.718 322.615 265.997 323.36 263.473L339.453 209.768C339.774 208.695 340.303 207.698 341.009 206.836C341.714 205.974 342.581 205.263 343.56 204.746C344.539 204.23 345.609 203.917 346.708 203.827C347.807 203.736 348.913 203.87 349.961 204.22L383.225 215.33C384.81 215.859 386.274 216.706 387.532 217.821C388.79 218.936 389.815 220.296 390.548 221.82C391.28 223.345 391.705 225.003 391.797 226.698C391.888 228.392 391.646 230.088 391.082 231.685L373.876 280.482C373.103 282.698 371.57 284.555 369.558 285.712V285.712Z" fill="#3F3D56"/>
<path d="M299.949 200.418C312.646 200.418 322.94 189.947 322.94 177.031C322.94 164.115 312.646 153.644 299.949 153.644C287.251 153.644 276.958 164.115 276.958 177.031C276.958 189.947 287.251 200.418 299.949 200.418Z" fill="#A0616A"/>
<path d="M222.205 200.77C224.315 204.93 227.774 208.22 231.996 210.081C233.681 210.862 235.453 211.433 237.273 211.78C237.787 209.705 238.611 207.722 239.715 205.9C239.347 207.954 239.347 210.058 239.715 212.111C242.487 212.342 245.277 211.99 247.909 211.076C250.495 210.182 252.84 208.687 254.759 206.709C256.678 204.732 258.117 202.327 258.963 199.685C260.794 193.486 258.821 186.865 258.666 180.394C258.506 173.923 261.527 166.183 267.842 165.382C272.652 164.772 272.057 165.246 275.513 168.702C270.679 174.164 282.464 198.358 288.787 197.289C292.362 196.685 294.993 193.797 295.7 193.897C299.321 202.917 288.429 215.71 297.068 219.91L296.427 219.047C291.905 211.448 305.285 198.614 300.763 191.016C299.503 188.89 298.192 186.398 298.972 184.046C299.712 181.811 303.461 181.103 304.252 183.138C302.966 178.474 306.555 172.999 311.323 172.523C315.558 172.098 315.314 173.326 319.352 174.447C319.868 172.677 320.611 170.985 321.563 169.413C321.241 171.206 321.201 173.04 321.445 174.845C322.902 175.022 324.375 174.705 325.636 173.943C329.365 171.669 329.476 165.799 326.914 162.227C324.348 158.654 320.049 156.889 315.902 155.554C315.864 146.633 292.266 142.362 287.925 150.657C287.479 143.941 279.911 139.417 273.391 140.558C266.872 141.698 261.729 147.016 258.593 152.943C255.458 158.865 253.902 165.497 251.607 171.805C249.311 178.114 246.031 184.404 240.535 188.147C235.04 191.885 226.873 192.224 222.285 187.379C221.238 189.448 220.686 191.738 220.672 194.065C220.658 196.391 221.183 198.689 222.205 200.77V200.77Z" fill="#2F2E41"/>
<path d="M231.542 323.375L231.543 323.375C231.99 323.011 232.475 322.698 232.989 322.443L232.992 322.441C237.369 320.225 246.386 316.231 256.976 312.85C267.572 309.468 279.701 306.715 290.319 306.95C310.746 307.403 334.026 319.111 350.688 334.605C359.013 342.347 365.659 351.01 369.465 359.644C373.271 368.277 374.222 376.842 371.237 384.44C366.683 396.033 353.017 405.231 336.169 410.184C319.346 415.128 299.499 415.792 282.773 410.454C259.356 402.98 242.998 384.039 234.286 365.48C229.932 356.203 227.501 347.048 227.048 339.508C226.592 331.929 228.14 326.134 231.542 323.375Z" fill="#DD6E55" stroke="black"/>
<path d="M74.8762 477.866C61.4231 475.284 49.5146 413.631 75.9833 383.267C85.0518 372.864 96.3636 368.336 111.41 364.122C198.015 339.868 264.07 362.983 272.946 368.627C281.803 374.258 297.33 459.099 277.475 471.109C266.304 477.866 244.162 481.244 233.191 473.361C217.049 461.761 244.144 431.674 232.084 411.421C218.399 388.439 146.333 380.698 110.203 403.538C71.6558 427.906 151.166 492.506 74.8762 477.866Z" fill="#E1A793"/>
<path d="M164.822 373.043H113.426C100.739 360.674 91.6672 348.754 98.93 338.859C98.93 336.015 100.041 333.287 102.018 331.276C103.995 329.264 106.677 328.135 109.473 328.135H168.775C171.572 328.135 174.253 329.264 176.23 331.276C178.207 333.287 179.318 336.015 179.318 338.859C182.083 350.133 177.143 361.53 164.822 373.043Z" fill="#3F3D56"/>
<path d="M155.592 314.634C155.104 314.656 154.621 314.526 154.209 314.26C153.796 313.995 153.474 313.607 153.286 313.149C153.097 312.69 153.052 312.184 153.156 311.699C153.26 311.214 153.508 310.773 153.866 310.436L154.029 309.776C154.008 309.723 153.986 309.67 153.964 309.618C153.473 308.437 152.65 307.431 151.598 306.725C150.546 306.019 149.313 305.645 148.053 305.65C146.793 305.654 145.562 306.038 144.516 306.752C143.469 307.466 142.653 308.478 142.171 309.662C140.242 314.388 137.786 319.122 137.181 324.119C136.915 326.327 137.027 328.566 137.513 330.736C132.983 320.683 130.63 309.756 130.615 298.697C130.614 295.922 130.766 293.149 131.069 290.391C131.32 288.131 131.668 285.886 132.113 283.657C134.541 271.564 139.754 260.23 147.325 250.585C150.989 248.551 153.953 245.424 155.816 241.624C156.491 240.258 156.968 238.8 157.232 237.295C156.819 237.35 155.673 230.947 155.985 230.554C155.409 229.665 154.378 229.223 153.749 228.355C150.62 224.04 146.309 224.793 144.059 230.657C139.252 233.125 139.205 237.219 142.155 241.155C144.032 243.66 144.289 247.049 145.936 249.73C145.767 249.951 145.59 250.164 145.421 250.385C142.324 254.435 139.625 258.785 137.363 263.371C137.913 258.233 137.256 253.036 135.447 248.207C133.612 243.706 130.175 239.915 127.147 236.025C123.511 231.351 116.055 233.391 115.414 239.315C115.408 239.372 115.402 239.43 115.396 239.487C115.845 239.745 116.286 240.019 116.716 240.309C117.257 240.676 117.677 241.202 117.919 241.816C118.162 242.43 118.216 243.105 118.075 243.751C117.935 244.397 117.605 244.985 117.13 245.438C116.656 245.89 116.057 246.186 115.414 246.287L115.348 246.297C115.509 247.946 115.792 249.58 116.195 251.184C112.312 266.462 120.696 272.027 132.668 272.277C132.933 272.415 133.19 272.553 133.454 272.684C131.181 279.237 129.755 286.063 129.213 292.99C128.905 297.077 128.923 301.182 129.267 305.266L129.246 305.122C128.379 300.58 125.997 296.483 122.504 293.521C117.315 289.185 109.985 287.589 104.387 284.104C103.793 283.715 103.101 283.508 102.394 283.506C101.687 283.504 100.994 283.708 100.398 284.094C99.8008 284.479 99.3249 285.03 99.0259 285.682C98.727 286.334 98.6175 287.059 98.7103 287.772C98.7178 287.822 98.7255 287.873 98.7332 287.924C99.5677 288.27 100.38 288.668 101.166 289.116C101.616 289.374 102.056 289.648 102.486 289.938C103.027 290.306 103.447 290.831 103.689 291.445C103.932 292.059 103.986 292.734 103.845 293.38C103.705 294.026 103.375 294.614 102.9 295.067C102.426 295.519 101.827 295.815 101.184 295.916L101.118 295.926C101.071 295.933 101.03 295.94 100.983 295.947C102.409 299.41 104.41 302.597 106.899 305.37C109.327 318.707 119.757 319.972 130.913 316.088H130.92C132.144 321.499 133.918 326.766 136.212 331.804H155.118C155.186 331.591 155.247 331.37 155.308 331.156C153.558 331.268 151.801 331.162 150.076 330.839C151.479 329.088 152.882 327.324 154.284 325.573C154.316 325.54 154.345 325.506 154.372 325.47C155.084 324.574 155.802 323.684 156.514 322.788L156.514 322.787C156.552 320.04 156.242 317.3 155.592 314.634Z" fill="#7DDD65"/>
<path d="M220.075 370.241C220.388 371.17 220.983 371.974 221.774 372.537C222.564 373.1 223.51 373.394 224.475 373.377L243.33 372.883C244.302 372.864 245.242 372.525 246.009 371.918C246.777 371.31 247.33 370.466 247.587 369.512L250.255 340.49C251.201 340.926 252.232 341.141 253.271 341.12C255.094 341.073 256.824 340.292 258.081 338.948C259.338 337.604 260.018 335.807 259.972 333.952C259.927 332.098 259.158 330.338 257.837 329.059C256.515 327.781 254.749 327.089 252.926 327.135C252.51 327.134 252.096 327.178 251.69 327.266C251.248 326.78 250.712 326.393 250.114 326.131C249.517 325.869 248.872 325.737 248.221 325.743L219.218 326.505C218.978 326.514 218.739 326.545 218.503 326.596C217.867 326.716 217.264 326.974 216.734 327.352C216.204 327.729 215.76 328.218 215.431 328.785C215.103 329.352 214.897 329.984 214.829 330.638C214.76 331.293 214.831 331.954 215.035 332.579L220.075 370.241ZM250.802 338.519L252.7 331.603C252.916 330.804 252.921 329.961 252.715 329.16C252.807 329.16 252.888 329.115 252.981 329.115C254.282 329.088 255.541 329.587 256.482 330.503C257.422 331.418 257.968 332.676 257.998 334C258.028 335.324 257.542 336.606 256.644 337.566C255.747 338.525 254.512 339.083 253.211 339.118C252.369 339.145 251.536 338.938 250.802 338.519V338.519Z" fill="#3F3D56"/>
<path d="M218.503 326.596C219.121 330.19 226.068 332.716 234.421 332.277C242.102 331.917 248.383 329.173 249.534 325.922C249.108 325.793 248.665 325.733 248.221 325.744L219.218 326.505C218.978 326.514 218.738 326.545 218.503 326.596V326.596Z" fill="white"/>
<path d="M1.00976 479.227L635.99 479.492C636.258 479.492 636.515 479.383 636.704 479.191C636.894 478.998 637 478.737 637 478.464C637 478.192 636.894 477.931 636.704 477.738C636.515 477.546 636.258 477.437 635.99 477.437L1.00976 477.172C0.74195 477.172 0.485117 477.28 0.29575 477.473C0.106383 477.666 0 477.927 0 478.199C0 478.472 0.106383 478.733 0.29575 478.926C0.485117 479.118 0.74195 479.227 1.00976 479.227V479.227Z" fill="#CACACA"/>
<path d="M357.151 249.667C355.424 249.731 353.79 250.478 352.596 251.749C351.402 253.02 350.743 254.715 350.759 256.472C350.768 256.829 350.806 257.185 350.872 257.536L330.944 269.504L333.356 281.927L358.913 262.53C360.322 262.137 361.563 261.281 362.443 260.094C363.323 258.908 363.793 257.459 363.778 255.973C363.762 255.127 363.582 254.293 363.249 253.519C362.916 252.744 362.436 252.044 361.836 251.457C361.237 250.871 360.53 250.411 359.756 250.103C358.982 249.795 358.156 249.645 357.324 249.661C357.266 249.662 357.208 249.664 357.151 249.667Z" fill="#A0616A"/>
<path d="M340.826 278.198C340.293 277.472 340.064 277.167 339.942 277.251C339.63 277.442 339.931 280.009 337.736 284.482C334.646 290.767 302.25 300.392 302.25 300.392L298.261 292.964L280.717 260.321L274.67 234.156C274.458 233.244 274.355 232.309 274.364 231.372C279.755 227.512 285.481 224.16 291.47 221.356C293.863 222.737 295.688 224.948 296.61 227.585L308.687 262.03L313.506 275.783C313.506 275.783 322.007 269.599 325.09 270.734C328.169 271.876 329.044 270.275 327.031 265.149C325.019 260.022 328.04 265.299 331.555 265.634C335.077 265.975 331.555 265.634 333.218 263.459C334.882 261.284 345.638 260.06 345.638 260.06L345.866 260.545L350.035 269.267L351.228 271.773C351.228 271.773 346.809 276.65 345.743 277.622C344.672 278.601 344.341 278.533 344.865 279.649C345.383 280.759 342.677 280.709 340.826 278.198Z" fill="#94D0EB"/>
<path d="M630.416 474.766H495.35V470.55C495.35 466.889 496.78 463.379 499.324 460.79C501.869 458.202 505.32 456.747 508.919 456.747H616.847C620.446 456.747 623.897 458.202 626.442 460.79C628.986 463.379 630.416 466.889 630.416 470.55V474.766V474.766Z" fill="#3F3D56"/>
</g>
<defs>
<filter id="filter0_d_1017_3691" x="715.152" y="265.187" width="124.505" height="178.06" filterUnits="userSpaceOnUse" color-interpolation-filters="sRGB">
<feFlood flood-opacity="0" result="BackgroundImageFix"/>
<feColorMatrix in="SourceAlpha" type="matrix" values="0 0 0 0 0 0 0 0 0 0 0 0 0 0 0 0 0 0 127 0" result="hardAlpha"/>
<feOffset dy="4"/>
<feGaussianBlur stdDeviation="2"/>
<feComposite in2="hardAlpha" operator="out"/>
<feColorMatrix type="matrix" values="0 0 0 0 0 0 0 0 0 0 0 0 0 0 0 0 0 0 0.25 0"/>
<feBlend mode="normal" in2="BackgroundImageFix" result="effect1_dropShadow_1017_3691"/>
<feBlend mode="normal" in="SourceGraphic" in2="effect1_dropShadow_1017_3691" result="shape"/>
</filter>
<clipPath id="clip0_1017_3691">
<rect width="637" height="480" fill="white"/>
</clipPath>
</defs>
</svg>
