<svg width="751" height="578" viewBox="0 0 751 578" fill="none" xmlns="http://www.w3.org/2000/svg">
<g clip-path="url(#clip0_1015_4414)">
<path d="M680.032 575.323H520.794V570.246C520.794 565.838 522.479 561.61 525.479 558.493C528.479 555.376 532.548 553.625 536.791 553.625H664.035C668.277 553.625 672.346 555.376 675.346 558.493C678.346 561.61 680.032 565.838 680.032 570.246V575.323Z" fill="#E1A793"/>
<path d="M596.686 554.638L601.529 552.612C550.861 421.943 555.742 257.094 598.573 115.682C603.661 99.2975 604.028 81.725 599.629 65.1266C595.229 48.5282 586.256 33.6279 573.813 22.2588C548.952 -0.79088 514.679 -6.40599 484.362 7.60329C454.436 21.4338 450.312 45.5244 450.312 69.4978H455.532C455.532 43.9074 460.796 24.4314 486.484 12.5595C514.898 -0.569718 547.028 4.69643 570.336 26.3066C582.024 36.9846 590.452 50.9794 594.584 66.5693C598.716 82.1592 598.372 98.664 593.593 114.053C550.267 257.098 545.672 423.079 596.686 554.638Z" fill="#2F2E41"/>
<path d="M454.227 149.508C464.319 149.508 472.5 141.008 472.5 130.522C472.5 120.037 464.319 111.537 454.227 111.537C444.135 111.537 435.954 120.037 435.954 130.522C435.954 141.008 444.135 149.508 454.227 149.508Z" fill="#FBD387"/>
<path d="M426.085 163.619V127.646H431.468V163.619C433.013 164.268 434.292 165.455 435.086 166.976C435.88 168.498 436.141 170.259 435.823 171.958C435.505 173.657 434.628 175.188 433.342 176.288C432.056 177.389 430.442 177.991 428.777 177.991C427.111 177.991 425.497 177.389 424.211 176.288C422.926 175.188 422.049 173.657 421.731 171.958C421.412 170.259 421.673 168.498 422.467 166.976C423.262 165.455 424.541 164.268 426.085 163.619Z" fill="#54B234"/>
<path d="M400.06 100.01C400.069 91.7406 403.235 83.8127 408.863 77.9654C414.491 72.1181 422.121 68.829 430.081 68.8196H479.679C487.641 68.8196 495.277 72.1057 500.907 77.955C506.537 83.8043 509.699 91.7377 509.699 100.01C509.699 108.282 506.537 116.215 500.907 122.065C495.277 127.914 487.641 131.2 479.679 131.2H430.081C422.121 131.191 414.491 127.902 408.863 122.054C403.235 116.207 400.069 108.279 400.06 100.01Z" fill="#E1A793"/>
<path d="M330.178 293.16C335.158 226.965 360.619 195.427 344.316 175.649C328.699 156.703 284.709 160.617 256.459 178.796C180.26 227.83 152.343 423.258 250.4 518.74C343.578 609.472 520.169 580.412 559.414 506.149C568.571 488.822 575.845 458.446 562.443 440.049C529.171 394.376 408.199 477.102 354.414 425.36C322.539 394.696 327.445 329.488 330.178 293.16Z" fill="#DD6E55"/>
<path d="M388.425 260.274C386.574 261.159 385.129 262.758 384.396 264.733C383.663 266.708 383.701 268.902 384.502 270.849C384.671 271.242 384.87 271.619 385.099 271.978L368.744 294.667L376.905 307.34L396.075 273.742C397.434 272.642 398.403 271.105 398.832 269.372C399.261 267.639 399.126 265.807 398.448 264.162C398.054 263.23 397.486 262.388 396.778 261.684C396.07 260.979 395.236 260.427 394.323 260.057C393.409 259.688 392.435 259.509 391.455 259.531C390.475 259.553 389.509 259.776 388.612 260.186C388.549 260.214 388.487 260.244 388.425 260.274Z" fill="#A0616A"/>
<path d="M388.412 299.393C389.483 300.38 386.513 301.597 383.373 299.677C382.474 299.121 382.09 298.89 381.989 299.037C381.737 299.404 383.211 302.111 382.818 308.123C382.575 311.711 376.839 318.458 370.326 325.036C361.52 333.933 351.28 342.516 351.28 342.516L347.685 339.526L309.987 308.123L303.625 298.974C304.208 295.361 305.083 291.805 306.241 288.345C307.836 283.556 309.732 278.88 311.916 274.349C313.087 271.883 314.289 269.533 315.44 267.372L335.637 290.496L352.562 309.865C352.562 309.865 357.49 301.618 361.308 299.372C361.794 299.05 362.348 298.852 362.923 298.795C366.781 298.607 367.013 296.424 362.54 291.671C358.066 286.918 363.711 291.357 367.69 290.077C371.669 288.796 367.69 290.077 368.528 286.876C369.366 283.676 380.525 277.255 380.525 277.255L380.99 277.685L389.422 285.418L391.836 287.632C391.836 287.632 389.2 295.144 388.473 296.728C387.746 298.313 387.352 298.397 388.412 299.393Z" fill="#61BEEF"/>
<path d="M610.697 445.145L611.108 433.572L568.34 426.417L567.733 443.497L610.697 445.145Z" fill="#A0616A"/>
<path d="M602.934 448.629L602.528 430.099L610.152 430.392L622.461 413.261C623.069 412.415 623.922 411.793 624.894 411.486C625.866 411.179 626.907 411.202 627.866 411.553C628.824 411.905 629.649 412.565 630.221 413.438C630.793 414.311 631.081 415.351 631.043 416.406L630.261 438.418L622.585 441.923L630.074 443.693L629.779 451.993L602.934 448.629Z" fill="#2F2E41"/>
<path d="M505.484 452.72L505.476 452.72L505.468 452.719L370.672 449.168L389.082 392.473L389.154 392.484L390.593 392.712C391.853 392.912 393.703 393.206 396.058 393.579C400.769 394.327 407.503 395.396 415.595 396.684C431.78 399.259 453.399 402.706 475.134 406.197C496.87 409.687 518.723 413.219 535.376 415.965C543.702 417.337 550.728 418.513 555.788 419.388C558.319 419.825 560.356 420.187 561.819 420.461C562.55 420.598 563.135 420.712 563.566 420.802C564.012 420.896 564.255 420.957 564.332 420.985C566.166 421.651 567.145 421.983 568.281 421.636C568.823 421.471 569.38 421.159 570.073 420.73C570.352 420.557 570.649 420.368 570.979 420.158C571.5 419.826 572.104 419.441 572.853 418.984C573.457 418.615 573.921 418.345 574.283 418.156C574.651 417.965 574.884 417.874 575.033 417.841C575.097 417.827 575.131 417.826 575.147 417.827C575.159 417.84 575.196 417.882 575.262 418.009C575.293 418.069 575.328 418.144 575.368 418.229C575.519 418.551 575.745 419.032 576.139 419.532C576.651 420.181 577.447 420.876 578.779 421.521C581.406 422.792 584.964 423.397 587.823 423.689C589.261 423.836 590.538 423.905 591.455 423.938C591.846 423.952 592.172 423.959 592.418 423.963L591.666 445.114L577.613 446.957L577.495 446.973L577.398 447.039C575.748 448.154 573.393 449.096 570.502 449.882C567.618 450.666 564.231 451.286 560.537 451.772C553.15 452.744 544.572 453.174 536.41 453.315C528.251 453.456 520.519 453.307 514.825 453.123C511.979 453.031 509.643 452.93 508.019 452.853C507.207 452.814 506.573 452.781 506.142 452.757C506.023 452.751 505.919 452.745 505.832 452.74C505.761 452.736 505.701 452.733 505.651 452.73L505.526 452.723L505.495 452.721L505.487 452.72L505.485 452.72C505.485 452.72 505.484 452.72 505.454 453.219L505.484 452.72Z" fill="#F5F5F5" stroke="black"/>
<path d="M548.496 440.065L556.374 431.872L529.703 396.405L518.077 408.498L548.496 440.065Z" fill="#A0616A"/>
<path d="M540.524 432.937L552.356 419.066L557.755 424.668L577.992 420.808C578.991 420.617 580.023 420.764 580.937 421.225C581.851 421.687 582.599 422.44 583.072 423.375C583.544 424.31 583.717 425.377 583.565 426.421C583.412 427.465 582.943 428.431 582.225 429.178L567.242 444.762L559.32 441.907L563.651 448.497L558.003 454.373L540.524 432.937Z" fill="#2F2E41"/>
<path d="M446.33 382.063C446.56 381.619 446.561 381.619 446.561 381.619L446.564 381.621L446.573 381.626L446.611 381.645L446.762 381.724L447.352 382.029C447.87 382.298 448.631 382.693 449.606 383.198C451.555 384.209 454.356 385.663 457.766 387.435C464.586 390.978 473.841 395.791 483.58 400.872C502.713 410.854 523.724 421.874 531.799 426.319C531.898 426.159 532.023 425.955 532.173 425.711C532.568 425.065 533.132 424.143 533.806 423.037C535.153 420.825 536.939 417.879 538.691 414.941C540.444 412.002 542.161 409.076 543.373 406.901C543.98 405.811 544.456 404.92 544.745 404.312C544.824 404.147 544.886 404.009 544.932 403.899C544.916 403.89 544.9 403.88 544.883 403.871C544.679 403.753 544.399 403.58 544.054 403.357C543.362 402.91 542.382 402.249 541.158 401.408C538.709 399.724 535.27 397.307 531.176 394.401C522.987 388.589 512.169 380.817 501.384 373.038C490.599 365.259 479.847 357.472 471.791 351.63C467.763 348.708 464.41 346.274 462.063 344.569C460.889 343.717 459.968 343.047 459.339 342.59L458.622 342.069L458.438 341.935L458.392 341.901L458.38 341.893L458.377 341.891C458.376 341.89 458.376 341.89 458.67 341.486L458.376 341.89L458.339 341.863L458.308 341.83L458.308 341.83L458.307 341.829L458.3 341.822L458.272 341.794C458.247 341.768 458.209 341.729 458.158 341.679C458.055 341.577 457.901 341.428 457.697 341.241C457.291 340.867 456.688 340.34 455.91 339.737C454.354 338.53 452.102 337.021 449.32 335.812C443.808 333.416 436.226 332.195 427.807 336.826C427.729 337.168 427.703 337.388 427.698 337.524L428.473 337.649L427.643 338.351L370.4 386.813L369.917 387.222L369.631 386.657L361.689 370.986L317.066 373.047L318.392 405.074C319.963 443.024 360.157 465.906 391.265 446.145L391.534 446.567L391.266 446.145C391.841 445.779 392.419 445.4 392.999 445.008L393.067 444.962L393.145 444.94L393.145 444.94L393.145 444.94L393.146 444.94L393.152 444.938L393.176 444.931C393.198 444.925 393.23 444.916 393.272 444.903C393.357 444.878 393.483 444.841 393.643 444.791C393.963 444.691 394.421 444.543 394.971 444.348C396.071 443.958 397.53 443.385 398.973 442.653C400.422 441.917 401.827 441.034 402.842 440.033C403.86 439.029 404.425 437.967 404.349 436.855C404.162 434.135 404.814 432.024 405.939 430.771C406.504 430.142 407.192 429.727 407.945 429.582C408.672 429.443 409.426 429.563 410.14 429.939C410.217 429.91 410.341 429.842 410.517 429.712C410.87 429.453 411.342 429.017 411.921 428.411C413.074 427.204 414.593 425.392 416.355 423.162C419.876 418.705 424.334 412.624 428.715 406.491C433.096 400.359 437.396 394.182 440.602 389.537C442.204 387.215 443.533 385.276 444.461 383.918C444.925 383.238 445.289 382.705 445.537 382.34L445.82 381.925L445.892 381.818L445.91 381.791L445.915 381.784L445.916 381.783C445.916 381.782 445.917 381.782 446.33 382.063ZM446.33 382.063L446.56 381.619L446.166 381.414L445.917 381.782L446.33 382.063ZM410.093 429.953C410.093 429.953 410.095 429.953 410.099 429.952C410.096 429.953 410.094 429.953 410.093 429.953Z" fill="white" stroke="black"/>
<path d="M370.517 331.908C370.409 333.411 370.203 334.904 369.901 336.378C369.489 338.511 368.824 340.584 367.922 342.547C367.922 342.547 367.922 344.74 363.883 352.085C359.843 359.429 364.893 356.282 367.922 361.738C370.952 367.183 367.922 364.675 364.559 368.18C363.591 369.199 362.904 370.47 362.568 371.859C362.232 373.249 362.261 374.706 362.651 376.08C362.651 376.08 319.268 376.112 311.189 372.964C303.11 369.816 301.272 352.085 308.513 350.333C315.743 348.58 306.321 346.839 302.07 342.799C297.818 338.76 306.321 332.15 306.321 332.15C306.321 332.15 302.817 325.865 303.11 304.765C303.151 302.825 303.323 300.889 303.625 298.974C304.207 295.361 305.082 291.805 306.24 288.345C307.836 283.556 309.731 278.88 311.916 274.349C313.087 271.883 314.289 269.533 315.44 267.372C315.622 267.036 315.794 266.711 315.975 266.385C318.167 262.356 320.166 259.062 321.489 256.953C322.509 255.316 323.125 254.393 323.125 254.393L330.477 241.11L355.016 253.06L353.623 272.607L357.854 287.349L359.803 294.137L361.308 299.372L363.63 307.483C363.63 307.483 362.994 307.514 363.751 308.595C367.239 313.413 369.501 319.068 370.326 325.036C370.616 327.314 370.681 329.617 370.517 331.908Z" fill="#61BEEF"/>
<path d="M441.384 334.015L440.924 333.86L382.19 314.21L403.833 240.438C404.264 238.969 405.01 237.621 406.016 236.495C407.021 235.369 408.259 234.495 409.637 233.939C411.015 233.383 412.496 233.158 413.969 233.283C415.443 233.408 416.869 233.879 418.142 234.66L455.675 257.7C458.646 259.522 460.907 262.37 462.062 265.748C463.216 269.125 463.192 272.817 461.993 276.178L441.384 334.015Z" fill="#2F2E41"/>
<path d="M441.623 338.705L382.416 318.896L404.059 245.124C404.49 243.655 405.237 242.307 406.242 241.181C407.248 240.055 408.486 239.181 409.864 238.625C411.241 238.069 412.723 237.845 414.196 237.97C415.669 238.095 417.096 238.565 418.369 239.347L457.694 259.746C463.602 263.371 463.464 272.755 460.72 280.455L441.623 338.705Z" fill="white"/>
<path d="M435.695 344.044C434.332 344.843 432.823 345.339 431.266 345.5C429.708 345.661 428.135 345.484 426.647 344.979L388.804 332.317C385.9 331.332 383.482 329.206 382.067 326.393C380.652 323.581 380.352 320.305 381.23 317.265L400.203 252.595C400.582 251.303 401.206 250.103 402.037 249.065C402.869 248.026 403.891 247.171 405.045 246.549C406.199 245.927 407.461 245.55 408.757 245.441C410.052 245.332 411.356 245.493 412.591 245.915L451.808 259.293C453.677 259.931 455.404 260.951 456.887 262.293C458.37 263.635 459.578 265.273 460.442 267.108C461.305 268.944 461.806 270.941 461.914 272.982C462.023 275.022 461.736 277.064 461.072 278.987L440.786 337.747C439.875 340.415 438.067 342.651 435.695 344.044Z" fill="#3F3D56"/>
<path d="M353.629 241.337C368.599 241.337 380.734 228.728 380.734 213.175C380.734 197.622 368.599 185.013 353.629 185.013C338.659 185.013 326.524 197.622 326.524 213.175C326.524 228.728 338.659 241.337 353.629 241.337Z" fill="#A0616A"/>
<path d="M261.972 241.761C264.459 246.77 268.537 250.732 273.515 252.973C275.502 253.913 277.591 254.6 279.736 255.019C280.343 252.52 281.314 250.132 282.615 247.938C282.181 250.411 282.181 252.945 282.615 255.417C285.884 255.695 289.172 255.271 292.276 254.171C295.325 253.094 298.09 251.293 300.352 248.913C302.614 246.532 304.311 243.636 305.308 240.455C307.467 232.99 305.141 225.017 304.958 217.225C304.769 209.432 308.331 200.112 315.776 199.148C321.447 198.413 320.746 198.984 324.82 203.145C319.121 209.723 333.015 238.856 340.47 237.569C344.685 236.841 347.787 233.364 348.62 233.485C352.889 244.347 340.048 259.751 350.233 264.808L349.477 263.769C344.146 254.619 359.92 239.165 354.589 230.015C353.103 227.455 351.558 224.454 352.477 221.623C353.35 218.93 357.77 218.078 358.702 220.529C357.186 214.912 361.418 208.32 367.038 207.747C372.032 207.235 371.743 208.714 376.504 210.063C377.112 207.932 377.989 205.894 379.111 204.002C378.731 206.161 378.685 208.369 378.972 210.543C380.689 210.756 382.426 210.374 383.913 209.456C388.309 206.718 388.44 199.65 385.42 195.348C382.394 191.045 377.327 188.921 372.438 187.314C372.393 176.571 344.571 171.428 339.454 181.416C338.927 173.329 330.005 167.881 322.319 169.255C314.633 170.629 308.569 177.032 304.872 184.169C301.176 191.301 299.341 199.286 296.635 206.882C293.929 214.478 290.061 222.053 283.582 226.56C277.103 231.061 267.475 231.47 262.066 225.636C260.832 228.127 260.181 230.885 260.164 233.687C260.148 236.488 260.767 239.254 261.972 241.761Z" fill="#2F2E41"/>
<path d="M289.784 370.543C290.345 370.077 290.953 369.676 291.598 369.349C301.973 363.984 334.236 350.059 359.463 350.63C408.003 351.729 469.776 407.387 455.399 444.763C444.46 473.202 390.074 489.383 350.375 476.442C294.759 458.312 272.806 384.607 289.784 370.543Z" fill="#DD6E55"/>
<path d="M290.103 370.928L290.103 370.927C290.636 370.485 291.213 370.105 291.825 369.795L291.825 369.795L291.828 369.793C296.992 367.123 307.627 362.311 320.116 358.239C332.612 354.165 346.922 350.846 359.452 351.13C383.56 351.676 411.025 365.787 430.68 384.455C440.502 393.784 448.347 404.226 452.841 414.639C457.336 425.052 458.465 435.398 454.933 444.583C449.546 458.588 433.398 469.676 413.528 475.641C393.682 481.599 370.267 482.4 350.53 475.966C322.894 466.958 303.591 444.126 293.311 421.759C288.173 410.578 285.302 399.541 284.767 390.444C284.229 381.307 286.053 374.283 290.103 370.928Z" stroke="black" stroke-opacity="0.26"/>
<path d="M88.2762 575.43C72.4155 572.321 58.3759 498.081 89.5814 461.518C100.273 448.99 113.609 443.538 131.349 438.464C233.452 409.258 311.328 437.092 321.794 443.888C332.236 450.669 350.541 552.832 327.133 567.293C313.962 575.43 287.858 579.498 274.924 570.006C255.892 556.038 287.837 519.807 273.619 495.42C257.484 467.746 172.521 458.424 129.925 485.927C84.4794 515.27 178.219 593.059 88.2762 575.43Z" fill="#E1A793"/>
<path d="M194.319 449.206H133.725C118.767 434.312 108.072 419.957 116.635 408.043C116.635 404.618 117.944 401.333 120.275 398.911C122.606 396.489 125.768 395.129 129.064 395.129H198.98C202.277 395.129 205.438 396.489 207.769 398.911C210.1 401.333 211.41 404.618 211.41 408.043C214.67 421.619 208.845 435.342 194.319 449.206Z" fill="#D35D43" fill-opacity="0.97"/>
<path d="M183.437 378.871C182.862 378.899 182.293 378.742 181.807 378.422C181.32 378.102 180.94 377.635 180.718 377.083C180.496 376.531 180.443 375.922 180.565 375.338C180.688 374.753 180.98 374.222 181.403 373.816L181.595 373.022C181.57 372.958 181.544 372.895 181.518 372.831C180.939 371.41 179.969 370.198 178.729 369.348C177.489 368.498 176.035 368.047 174.549 368.053C173.064 368.059 171.613 368.52 170.379 369.38C169.145 370.24 168.183 371.459 167.614 372.885C165.34 378.576 162.445 384.276 161.732 390.293C161.418 392.952 161.55 395.648 162.123 398.261C156.782 386.155 154.008 372.998 153.991 359.681C153.989 356.34 154.168 353.001 154.526 349.68C154.821 346.957 155.232 344.254 155.756 341.57C158.619 327.009 164.766 313.36 173.691 301.746C178.011 299.297 181.505 295.531 183.701 290.955C184.497 289.311 185.059 287.555 185.371 285.743C184.884 285.809 183.533 278.098 183.901 277.625C183.222 276.555 182.006 276.022 181.265 274.978C177.576 269.781 172.494 270.689 169.841 277.75C164.173 280.722 164.118 285.651 167.596 290.391C169.808 293.407 170.112 297.488 172.053 300.716C171.854 300.982 171.646 301.239 171.446 301.505C167.795 306.383 164.613 311.62 161.946 317.143C162.594 310.956 161.82 304.698 159.687 298.882C157.524 293.463 153.471 288.898 149.902 284.213C145.615 278.585 136.824 281.041 136.069 288.175C136.062 288.244 136.055 288.313 136.048 288.382C136.578 288.693 137.097 289.023 137.604 289.372C138.242 289.815 138.737 290.447 139.022 291.187C139.308 291.926 139.372 292.738 139.207 293.517C139.041 294.295 138.652 295.003 138.093 295.548C137.533 296.093 136.827 296.449 136.069 296.571L135.992 296.583C136.181 298.568 136.514 300.535 136.99 302.468C132.412 320.865 142.297 327.566 156.411 327.867C156.723 328.033 157.026 328.199 157.338 328.356C154.658 336.248 152.977 344.467 152.337 352.809C151.975 357.73 151.996 362.674 152.401 367.592L152.377 367.417C151.354 361.949 148.547 357.015 144.428 353.448C138.311 348.227 129.668 346.305 123.069 342.108C122.368 341.64 121.552 341.39 120.719 341.388C119.885 341.386 119.069 341.632 118.365 342.096C117.662 342.56 117.1 343.224 116.748 344.009C116.396 344.793 116.267 345.667 116.376 346.525C116.385 346.586 116.394 346.647 116.403 346.708C117.387 347.125 118.345 347.604 119.271 348.144C119.801 348.455 120.32 348.785 120.828 349.134C121.466 349.576 121.96 350.209 122.246 350.949C122.532 351.688 122.596 352.5 122.43 353.278C122.264 354.057 121.876 354.764 121.316 355.309C120.756 355.854 120.051 356.211 119.293 356.332L119.215 356.345C119.159 356.353 119.111 356.361 119.055 356.37C120.736 360.54 123.095 364.378 126.03 367.716C128.892 383.776 141.189 385.3 154.342 380.623H154.35C155.793 387.139 157.884 393.481 160.589 399.547H182.878C182.958 399.29 183.03 399.024 183.102 398.767C181.039 398.902 178.968 398.774 176.935 398.385C178.588 396.277 180.242 394.152 181.896 392.044C181.933 392.005 181.967 391.963 182 391.92C182.838 390.841 183.685 389.77 184.524 388.691L184.525 388.689C184.569 385.382 184.203 382.082 183.437 378.871Z" fill="url(#paint0_linear_1015_4414)" fill-opacity="0.82"/>
<path d="M259.46 445.832C259.83 446.951 260.531 447.918 261.463 448.597C262.395 449.275 263.51 449.629 264.648 449.608L286.877 449.014C288.023 448.991 289.131 448.583 290.036 447.851C290.941 447.119 291.593 446.103 291.895 444.954L295.041 410.006C296.157 410.532 297.372 410.791 298.597 410.765C300.746 410.709 302.786 409.768 304.268 408.15C305.75 406.531 306.552 404.367 306.498 402.134C306.444 399.901 305.538 397.782 303.98 396.242C302.422 394.703 300.34 393.869 298.19 393.925C297.701 393.924 297.212 393.977 296.733 394.083C296.213 393.498 295.58 393.032 294.875 392.716C294.171 392.4 293.411 392.241 292.644 392.249L258.451 393.167C258.167 393.178 257.885 393.214 257.607 393.276C256.857 393.421 256.146 393.731 255.521 394.186C254.897 394.641 254.373 395.229 253.986 395.912C253.598 396.595 253.356 397.356 253.275 398.144C253.195 398.932 253.277 399.729 253.518 400.481L259.46 445.832ZM295.686 407.633L297.925 399.305C298.179 398.343 298.185 397.329 297.942 396.363C298.05 396.363 298.146 396.31 298.255 396.309C299.789 396.277 301.274 396.878 302.383 397.98C303.491 399.083 304.134 400.597 304.17 402.192C304.206 403.786 303.632 405.33 302.574 406.485C301.516 407.641 300.061 408.313 298.526 408.355C297.534 408.387 296.552 408.138 295.686 407.633Z" fill="#CCCCCC"/>
<path d="M257.607 393.276C258.336 397.603 266.526 400.646 276.374 400.117C285.43 399.683 292.835 396.379 294.191 392.464C293.689 392.31 293.167 392.237 292.644 392.249L258.451 393.167C258.167 393.178 257.885 393.214 257.607 393.276Z" fill="white"/>
<path d="M1.19047 577.069L749.81 577.388C750.125 577.388 750.428 577.257 750.651 577.026C750.875 576.794 751 576.479 751 576.151C751 575.823 750.875 575.508 750.651 575.276C750.428 575.044 750.125 574.914 749.81 574.914L1.19047 574.595C0.874733 574.595 0.571935 574.725 0.348679 574.957C0.125422 575.189 0 575.504 0 575.832C0 576.16 0.125422 576.474 0.348679 576.706C0.571935 576.938 0.874733 577.069 1.19047 577.069Z" fill="#CACACA"/>
<path d="M421.068 300.641C419.032 300.718 417.105 301.618 415.698 303.148C414.291 304.678 413.514 306.719 413.533 308.835C413.543 309.266 413.587 309.694 413.666 310.117L390.171 324.528L393.015 339.487L423.145 316.13C424.806 315.657 426.27 314.625 427.308 313.197C428.345 311.769 428.899 310.024 428.881 308.234C428.862 307.216 428.65 306.212 428.257 305.279C427.864 304.346 427.298 303.503 426.592 302.797C425.885 302.091 425.052 301.537 424.139 301.166C423.227 300.795 422.252 300.614 421.272 300.634C421.204 300.635 421.136 300.638 421.068 300.641Z" fill="#A0616A"/>
<path d="M401.821 334.997C401.193 334.122 400.923 333.756 400.78 333.856C400.412 334.087 400.766 337.178 398.178 342.564C394.536 350.132 356.342 361.722 356.342 361.722L351.639 352.778L330.955 313.47L323.826 281.964C323.576 280.865 323.455 279.739 323.465 278.611C329.822 273.963 336.572 269.926 343.633 266.549C346.454 268.212 348.605 270.875 349.692 274.05L363.93 315.528L369.612 332.089C369.612 332.089 379.634 324.643 383.27 326.009C386.899 327.385 387.931 325.456 385.558 319.283C383.186 313.11 386.747 319.465 390.891 319.868C395.043 320.278 390.891 319.868 392.852 317.249C394.814 314.629 407.494 313.156 407.494 313.156L407.764 313.74L412.678 324.243L414.085 327.26C414.085 327.26 408.875 333.133 407.618 334.303C406.355 335.482 405.965 335.401 406.584 336.744C407.194 338.081 404.004 338.02 401.821 334.997Z" fill="#61BEEF"/>
</g>
<defs>
<linearGradient id="paint0_linear_1015_4414" x1="150.855" y1="271.664" x2="150.855" y2="399.547" gradientUnits="userSpaceOnUse">
<stop stop-color="#129930"/>
<stop offset="1" stop-color="#57A067"/>
</linearGradient>
<clipPath id="clip0_1015_4414">
<rect width="751" height="578" fill="white"/>
</clipPath>
</defs>
</svg>
