<svg width="937" height="708" viewBox="0 0 937 708" fill="none" xmlns="http://www.w3.org/2000/svg">
<g clip-path="url(#clip0_1017_3422)">
<path d="M570.22 408.02L580.26 442.79L590.3 477.56H570.22H550.14L560.18 442.79L570.22 408.02Z" fill="#3AD29F"/>
<path d="M589.99 403.31L600.02 438.08L610.06 472.86H589.99H569.91L579.95 438.08L589.99 403.31Z" fill="#3AD29F"/>
<path d="M609.75 403.31L619.79 438.08L629.83 472.86H609.75H589.67L599.71 438.08L609.75 403.31Z" fill="#3AD29F"/>
<path d="M762.4 424.54L772.44 459.31L782.48 494.09H762.4H742.32L752.36 459.31L762.4 424.54Z" fill="#3AD29F"/>
<path d="M120.25 390.33L137.44 422.18L154.63 454.03L135.02 458.29L115.4 462.56L117.82 426.44L120.25 390.33Z" fill="#3AD29F"/>
<path d="M0 707.09L38 528.09L66 491.09L94 443.09L146 412.09L185 390.09L201 438.09L231.74 458.67L251 487.09L281 477.09L319 446.09L348 438.09L389 412.09L427 422.09L466 408.09L492 390.09L517 420.09L531 459.09L534 473.09H570H610L635 446.09L674 438.09H712L738 446.09L784 459.09L886 707.09H0Z" fill="#E0E0E0"/>
<g opacity="0.3">
<path opacity="0.3" d="M284.92 178.78H160.68C152.363 178.78 145.62 185.523 145.62 193.84C145.62 202.157 152.363 208.9 160.68 208.9H284.92C293.237 208.9 299.98 202.157 299.98 193.84C299.98 185.523 293.237 178.78 284.92 178.78Z" fill="#E0E0E0"/>
<path opacity="0.3" d="M247.27 208.9H123.03C114.713 208.9 107.97 215.643 107.97 223.96C107.97 232.277 114.713 239.02 123.03 239.02H247.27C255.587 239.02 262.33 232.277 262.33 223.96C262.33 215.643 255.587 208.9 247.27 208.9Z" fill="#E0E0E0"/>
<path opacity="0.3" d="M284.92 239.02H160.68C152.363 239.02 145.62 245.763 145.62 254.08C145.62 262.397 152.363 269.14 160.68 269.14H284.92C293.237 269.14 299.98 262.397 299.98 254.08C299.98 245.763 293.237 239.02 284.92 239.02Z" fill="#E0E0E0"/>
</g>
<g opacity="0.5">
<path opacity="0.5" d="M427 672.4H226L237.77 143.43H415.23L427 672.4Z" fill="url(#paint0_linear_1017_3422)"/>
</g>
<path d="M423.08 672.4H230.13L241.42 143.43H411.78L423.08 672.4Z" fill="white"/>
<g opacity="0.05">
<path opacity="0.05" d="M276.25 672.4H230.13L241.42 143.43H264.95L276.25 672.4Z" fill="black"/>
</g>
<path d="M200.95 472.86H453.2C453.2 482.347 449.431 491.445 442.723 498.153C436.015 504.861 426.917 508.63 417.43 508.63H236.72C227.233 508.63 218.135 504.861 211.427 498.153C204.719 491.445 200.95 482.347 200.95 472.86Z" fill="#1272E7"/>
<path d="M200.95 295H453.2C453.2 304.487 449.431 313.585 442.723 320.293C436.015 327.001 426.917 330.77 417.43 330.77H236.72C227.233 330.77 218.135 327.001 211.427 320.293C204.719 313.585 200.95 304.487 200.95 295Z" fill="#1272E7"/>
<path d="M327.07 265.32C352.541 265.32 373.19 244.671 373.19 219.2C373.19 193.729 352.541 173.08 327.07 173.08C301.599 173.08 280.95 193.729 280.95 219.2C280.95 244.671 301.599 265.32 327.07 265.32Z" fill="#FFFFA5"/>
<path opacity="0.1" d="M419.31 508.62H233.89V511.44H419.31V508.62Z" fill="black"/>
<path opacity="0.1" d="M415.55 330.73H236.72V332.61H415.55V330.73Z" fill="black"/>
<path d="M377.9 672.4H318.6V590.98C318.6 583.116 321.724 575.575 327.284 570.014C332.845 564.454 340.386 561.33 348.25 561.33C356.113 561.333 363.653 564.457 369.213 570.017C374.773 575.577 377.897 583.117 377.9 590.98V672.4Z" fill="#E0E0E0"/>
<path d="M883.33 707.22H0.459961C0.459961 707.22 57.46 576.22 143.86 553.04C156.314 549.628 169.319 548.708 182.13 550.33C202.97 552.98 221.82 563.91 235.21 580.1C263.53 614.34 350.26 688.95 523.79 603.69C523.79 603.69 585.91 541.57 685.68 614.98C691.861 618.054 698.204 620.791 704.68 623.18C735.29 634.75 796.52 650.87 840.05 616.86C900.28 569.8 883.33 707.22 883.33 707.22Z" fill="#DAA45C"/>
<g opacity="0.3">
<path opacity="0.3" d="M696.92 39.78H572.68C564.363 39.78 557.62 46.5226 557.62 54.84C557.62 63.1574 564.363 69.9 572.68 69.9H696.92C705.237 69.9 711.98 63.1574 711.98 54.84C711.98 46.5226 705.237 39.78 696.92 39.78Z" fill="#E0E0E0"/>
<path opacity="0.3" d="M659.27 69.9H535.03C526.713 69.9 519.97 76.6426 519.97 84.96C519.97 93.2774 526.713 100.02 535.03 100.02H659.27C667.587 100.02 674.33 93.2774 674.33 84.96C674.33 76.6426 667.587 69.9 659.27 69.9Z" fill="#E0E0E0"/>
<path opacity="0.3" d="M696.92 100.02H572.68C564.363 100.02 557.62 106.763 557.62 115.08C557.62 123.397 564.363 130.14 572.68 130.14H696.92C705.237 130.14 711.98 123.397 711.98 115.08C711.98 106.763 705.237 100.02 696.92 100.02Z" fill="#E0E0E0"/>
</g>
<g opacity="0.3">
<path opacity="0.3" d="M824.92 249.78H700.68C692.363 249.78 685.62 256.523 685.62 264.84C685.62 273.157 692.363 279.9 700.68 279.9H824.92C833.237 279.9 839.98 273.157 839.98 264.84C839.98 256.523 833.237 249.78 824.92 249.78Z" fill="#E0E0E0"/>
<path opacity="0.3" d="M787.27 279.9H663.03C654.713 279.9 647.97 286.643 647.97 294.96C647.97 303.277 654.713 310.02 663.03 310.02H787.27C795.587 310.02 802.33 303.277 802.33 294.96C802.33 286.643 795.587 279.9 787.27 279.9Z" fill="#E0E0E0"/>
<path opacity="0.3" d="M824.92 310.02H700.68C692.363 310.02 685.62 316.763 685.62 325.08C685.62 333.397 692.363 340.14 700.68 340.14H824.92C833.237 340.14 839.98 333.397 839.98 325.08C839.98 316.763 833.237 310.02 824.92 310.02Z" fill="#E0E0E0"/>
</g>
<g opacity="0.3">
<path opacity="0.3" d="M634.85 259.2H667.79C667.79 259.2 655.38 281.16 634.85 259.2Z" fill="#030B44"/>
<path opacity="0.3" d="M636.84 268.54L658.44 243.67C658.44 243.67 666.88 267.44 636.84 268.54Z" fill="#030B44"/>
</g>
<g opacity="0.3">
<path opacity="0.3" d="M517.2 327.91H550.14C550.14 327.91 537.73 349.87 517.2 327.91Z" fill="#030B44"/>
<path opacity="0.3" d="M519.19 337.25L540.78 312.38C540.78 312.38 549.23 336.15 519.19 337.25Z" fill="#030B44"/>
</g>
<g opacity="0.3">
<path opacity="0.3" d="M474.59 70.01H509.92C509.92 70.01 496.61 93.61 474.59 70.01Z" fill="#030B44"/>
<path opacity="0.3" d="M476.72 80.04L499.89 53.35C499.89 53.35 508.95 78.85 476.72 80.04Z" fill="#030B44"/>
</g>
<g opacity="0.05">
<path opacity="0.05" d="M231.74 508.48C232.74 508.57 233.79 508.62 234.83 508.62H270.83L270.07 472.86H232.53L231.74 508.48Z" fill="black"/>
</g>
<g opacity="0.05">
<path opacity="0.05" d="M268.19 294.97H238.19L237.42 330.73H268.95L268.19 294.97Z" fill="black"/>
</g>
<path d="M935.06 460.17C935.458 460.17 935.839 460.012 936.121 459.731C936.402 459.449 936.56 459.068 936.56 458.67C936.56 458.272 936.402 457.891 936.121 457.609C935.839 457.328 935.458 457.17 935.06 457.17C934.662 457.17 934.281 457.328 933.999 457.609C933.718 457.891 933.56 458.272 933.56 458.67C933.56 459.068 933.718 459.449 933.999 459.731C934.281 460.012 934.662 460.17 935.06 460.17Z" fill="#DAA45C"/>
<path d="M453.67 106.21C453.67 141.4 396.78 169.92 326.6 169.92C256.42 169.92 199.53 141.4 199.53 106.21C199.53 71.02 256.42 0 326.6 0C396.78 0 453.67 71.03 453.67 106.21Z" fill="#1272E7"/>
<g opacity="0.05">
<path opacity="0.05" d="M198.79 106.21C198.79 141.4 255.68 169.92 325.86 169.92V0C255.68 0 198.79 71.03 198.79 106.21Z" fill="black"/>
</g>
</g>
<defs>
<linearGradient id="paint0_linear_1017_3422" x1="326.5" y1="672.4" x2="326.5" y2="143.43" gradientUnits="userSpaceOnUse">
<stop stop-color="#808080" stop-opacity="0.25"/>
<stop offset="0.54" stop-color="#808080" stop-opacity="0.12"/>
<stop offset="1" stop-color="#808080" stop-opacity="0.1"/>
</linearGradient>
<clipPath id="clip0_1017_3422">
<rect width="936.51" height="707.22" fill="white"/>
</clipPath>
</defs>
</svg>
