<svg width="803" height="508" viewBox="0 0 803 508" fill="none" xmlns="http://www.w3.org/2000/svg">
<g clip-path="url(#clip0_1015_4323)">
<path d="M706.75 463.87L707.531 446.293C715.68 441.938 724.769 439.637 734.009 439.591C721.292 449.988 722.881 470.029 714.26 484.01C711.537 488.35 707.873 492.022 703.539 494.753C699.204 497.485 694.311 499.206 689.221 499.789L678.58 506.304C677.119 498.164 677.441 489.804 679.523 481.8C681.605 473.796 685.397 466.338 690.639 459.941C693.615 456.381 697.028 453.21 700.796 450.503C703.345 457.224 706.75 463.87 706.75 463.87Z" fill="#F2F2F2"/>
<path d="M168.799 444.609L143.119 436.834C139.751 423.151 139.774 408.852 143.186 395.18C153.761 417.889 183.978 423.089 201.393 441.096C206.781 446.754 210.827 453.552 213.231 460.986C215.636 468.421 216.336 476.3 215.281 484.042L220.902 502.223C208.321 501.315 196.087 497.69 185.043 491.599C173.998 485.508 164.405 477.094 156.925 466.938C152.785 461.199 149.384 454.962 146.803 448.373C157.695 447.138 168.799 444.609 168.799 444.609Z" fill="#F2F2F2"/>
<path d="M617.767 503.43C617.763 503.962 617.551 504.472 617.177 504.85C616.991 505.035 616.771 505.181 616.529 505.281C616.287 505.38 616.028 505.431 615.767 505.43H607.727C607.464 505.431 607.203 505.38 606.96 505.28C606.717 505.18 606.496 505.032 606.31 504.846C606.124 504.66 605.977 504.44 605.877 504.197C605.777 503.953 605.726 503.693 605.727 503.43V260.29C605.727 254.93 603.927 250.58 601.717 250.57H101.227C99.0066 250.58 97.2165 254.93 97.2065 260.29V501.94C97.2049 502.437 97.0189 502.916 96.6845 503.283C96.3501 503.651 95.8911 503.881 95.3965 503.93C93.7765 504.09 92.1565 504.23 90.5465 504.36C90.5065 504.36 90.4665 504.37 90.4265 504.37C89.5465 504.45 88.6666 504.51 87.7866 504.58H87.7766C87.3166 503.75 86.8765 502.9 86.4265 502.05C86.2823 501.761 86.207 501.443 86.2065 501.12V247.68C86.2065 246.2 86.2665 244.71 86.3665 243.24C86.5092 241.222 86.7596 239.212 87.1165 237.22C88.8065 227.93 92.6266 221.64 96.9666 221.62H605.967C606.6 221.624 607.226 221.757 607.807 222.01C608.659 222.388 609.43 222.928 610.077 223.6C610.954 224.512 611.704 225.538 612.307 226.65C614.447 230.42 615.977 236.04 616.517 242.58C616.517 242.64 616.527 242.7 616.527 242.76C616.667 244.38 616.737 246.03 616.727 247.68L616.867 269.11L616.957 281.89L617.227 321.99L617.327 336.23L617.767 503.43Z" fill="#2F2E41"/>
<path d="M432.017 147.487H381.012C380.29 147.488 379.599 147.775 379.089 148.286C378.579 148.797 378.294 149.489 378.294 150.211V230.785H434.742V150.211C434.742 149.853 434.672 149.499 434.535 149.168C434.398 148.838 434.197 148.537 433.944 148.284C433.691 148.031 433.391 147.83 433.06 147.694C432.73 147.557 432.375 147.486 432.017 147.487V147.487ZM406.686 193.268C405.091 193.26 403.563 192.623 402.436 191.495C401.308 190.367 400.671 188.84 400.663 187.245V177.951C400.663 176.354 401.298 174.822 402.427 173.692C403.557 172.563 405.089 171.928 406.686 171.928C408.284 171.928 409.815 172.563 410.945 173.692C412.075 174.822 412.709 176.354 412.709 177.951V187.245C412.702 188.84 412.065 190.367 410.937 191.495C409.809 192.623 408.281 193.26 406.686 193.268V193.268Z" fill="#CCCCCC"/>
<path d="M378.119 228.207V235.981C378.12 236.384 378.281 236.77 378.565 237.055C378.85 237.34 379.236 237.5 379.639 237.501H433.397C433.799 237.499 434.185 237.338 434.469 237.053C434.754 236.769 434.915 236.383 434.917 235.981V228.207H378.119Z" fill="#3F3D56"/>
<path d="M516.478 21.7419H298.449C296.576 21.7449 294.78 22.4904 293.456 23.8149C292.131 25.1395 291.386 26.9351 291.383 28.8083V175.935C291.384 177.809 292.129 179.605 293.454 180.93C294.779 182.255 296.575 183 298.449 183.002H516.478C518.352 183 520.148 182.255 521.473 180.93C522.798 179.605 523.543 177.809 523.544 175.935V28.8083C523.541 26.9351 522.796 25.1395 521.471 23.8149C520.147 22.4904 518.351 21.7449 516.478 21.7419V21.7419Z" fill="#E6E6E6"/>
<path d="M514.658 26.8459H300.271C299.268 26.8481 298.306 27.2481 297.598 27.958C296.889 28.668 296.492 29.63 296.491 30.6329V174.113C296.493 175.115 296.892 176.075 297.6 176.783C298.309 177.492 299.269 177.891 300.271 177.892H514.658C515.66 177.891 516.62 177.492 517.328 176.783C518.037 176.075 518.435 175.115 518.437 174.113V30.6329C518.437 29.6299 518.039 28.668 517.331 27.958C516.622 27.2481 515.661 26.8481 514.658 26.8459V26.8459Z" fill="white"/>
<path d="M472.899 240.206H345.35C345.001 240.206 344.656 240.128 344.341 239.978C344.026 239.828 343.748 239.609 343.528 239.338C343.308 239.067 343.152 238.75 343.07 238.411C342.988 238.071 342.982 237.718 343.054 237.376L345.033 227.976C345.146 227.451 345.435 226.979 345.853 226.64C346.27 226.301 346.791 226.115 347.329 226.114H470.92C471.458 226.115 471.979 226.301 472.397 226.64C472.814 226.979 473.103 227.451 473.216 227.976L475.195 237.376C475.267 237.718 475.262 238.071 475.18 238.411C475.098 238.75 474.941 239.067 474.721 239.338C474.501 239.609 474.223 239.828 473.908 239.978C473.593 240.128 473.248 240.206 472.899 240.206V240.206Z" fill="#CCCCCC"/>
<path d="M351.675 227.806H348.723C348.453 227.806 348.235 228.025 348.235 228.294V229.675C348.235 229.945 348.453 230.163 348.723 230.163H351.675C351.945 230.163 352.163 229.945 352.163 229.675V228.294C352.163 228.025 351.945 227.806 351.675 227.806Z" fill="#E6E6E6"/>
<path d="M359.532 227.806H356.58C356.31 227.806 356.092 228.025 356.092 228.294V229.675C356.092 229.945 356.31 230.163 356.58 230.163H359.532C359.801 230.163 360.02 229.945 360.02 229.675V228.294C360.02 228.025 359.801 227.806 359.532 227.806Z" fill="#E6E6E6"/>
<path d="M367.388 227.806H364.436C364.167 227.806 363.948 228.025 363.948 228.294V229.675C363.948 229.945 364.167 230.163 364.436 230.163H367.388C367.658 230.163 367.877 229.945 367.877 229.675V228.294C367.877 228.025 367.658 227.806 367.388 227.806Z" fill="#E6E6E6"/>
<path d="M375.245 227.806H372.293C372.024 227.806 371.805 228.025 371.805 228.294V229.675C371.805 229.945 372.024 230.163 372.293 230.163H375.245C375.515 230.163 375.734 229.945 375.734 229.675V228.294C375.734 228.025 375.515 227.806 375.245 227.806Z" fill="#E6E6E6"/>
<path d="M383.102 227.806H380.15C379.88 227.806 379.662 228.025 379.662 228.294V229.675C379.662 229.945 379.88 230.163 380.15 230.163H383.102C383.372 230.163 383.59 229.945 383.59 229.675V228.294C383.59 228.025 383.372 227.806 383.102 227.806Z" fill="#E6E6E6"/>
<path d="M390.959 227.806H388.007C387.737 227.806 387.519 228.025 387.519 228.294V229.675C387.519 229.945 387.737 230.163 388.007 230.163H390.959C391.228 230.163 391.447 229.945 391.447 229.675V228.294C391.447 228.025 391.228 227.806 390.959 227.806Z" fill="#E6E6E6"/>
<path d="M398.815 227.806H395.863C395.594 227.806 395.375 228.025 395.375 228.294V229.675C395.375 229.945 395.594 230.163 395.863 230.163H398.815C399.085 230.163 399.304 229.945 399.304 229.675V228.294C399.304 228.025 399.085 227.806 398.815 227.806Z" fill="#E6E6E6"/>
<path d="M406.672 227.806H403.72C403.451 227.806 403.232 228.025 403.232 228.294V229.675C403.232 229.945 403.451 230.163 403.72 230.163H406.672C406.942 230.163 407.161 229.945 407.161 229.675V228.294C407.161 228.025 406.942 227.806 406.672 227.806Z" fill="#E6E6E6"/>
<path d="M414.529 227.806H411.577C411.307 227.806 411.089 228.025 411.089 228.294V229.675C411.089 229.945 411.307 230.163 411.577 230.163H414.529C414.799 230.163 415.017 229.945 415.017 229.675V228.294C415.017 228.025 414.799 227.806 414.529 227.806Z" fill="#E6E6E6"/>
<path d="M422.386 227.806H419.434C419.164 227.806 418.946 228.025 418.946 228.294V229.675C418.946 229.945 419.164 230.163 419.434 230.163H422.386C422.655 230.163 422.874 229.945 422.874 229.675V228.294C422.874 228.025 422.655 227.806 422.386 227.806Z" fill="#E6E6E6"/>
<path d="M430.243 227.806H427.291C427.021 227.806 426.802 228.025 426.802 228.294V229.675C426.802 229.945 427.021 230.163 427.291 230.163H430.243C430.512 230.163 430.731 229.945 430.731 229.675V228.294C430.731 228.025 430.512 227.806 430.243 227.806Z" fill="#E6E6E6"/>
<path d="M438.099 227.806H435.147C434.878 227.806 434.659 228.025 434.659 228.294V229.675C434.659 229.945 434.878 230.163 435.147 230.163H438.099C438.369 230.163 438.588 229.945 438.588 229.675V228.294C438.588 228.025 438.369 227.806 438.099 227.806Z" fill="#E6E6E6"/>
<path d="M445.956 227.806H443.004C442.734 227.806 442.516 228.025 442.516 228.294V229.675C442.516 229.945 442.734 230.163 443.004 230.163H445.956C446.226 230.163 446.444 229.945 446.444 229.675V228.294C446.444 228.025 446.226 227.806 445.956 227.806Z" fill="#E6E6E6"/>
<path d="M453.813 227.806H450.861C450.591 227.806 450.373 228.025 450.373 228.294V229.675C450.373 229.945 450.591 230.163 450.861 230.163H453.813C454.082 230.163 454.301 229.945 454.301 229.675V228.294C454.301 228.025 454.082 227.806 453.813 227.806Z" fill="#E6E6E6"/>
<path d="M461.67 227.806H458.718C458.448 227.806 458.229 228.025 458.229 228.294V229.675C458.229 229.945 458.448 230.163 458.718 230.163H461.67C461.939 230.163 462.158 229.945 462.158 229.675V228.294C462.158 228.025 461.939 227.806 461.67 227.806Z" fill="#E6E6E6"/>
<path d="M469.526 227.806H466.574C466.305 227.806 466.086 228.025 466.086 228.294V229.675C466.086 229.945 466.305 230.163 466.574 230.163H469.526C469.796 230.163 470.015 229.945 470.015 229.675V228.294C470.015 228.025 469.796 227.806 469.526 227.806Z" fill="#E6E6E6"/>
<path d="M351.582 231.735H348.63C348.36 231.735 348.142 231.953 348.142 232.223V233.603C348.142 233.873 348.36 234.092 348.63 234.092H351.582C351.852 234.092 352.07 233.873 352.07 233.603V232.223C352.07 231.953 351.852 231.735 351.582 231.735Z" fill="#E6E6E6"/>
<path d="M359.439 231.735H356.487C356.217 231.735 355.999 231.953 355.999 232.223V233.603C355.999 233.873 356.217 234.092 356.487 234.092H359.439C359.709 234.092 359.927 233.873 359.927 233.603V232.223C359.927 231.953 359.709 231.735 359.439 231.735Z" fill="#E6E6E6"/>
<path d="M367.296 231.735H364.344C364.074 231.735 363.855 231.953 363.855 232.223V233.603C363.855 233.873 364.074 234.092 364.344 234.092H367.296C367.565 234.092 367.784 233.873 367.784 233.603V232.223C367.784 231.953 367.565 231.735 367.296 231.735Z" fill="#E6E6E6"/>
<path d="M375.152 231.735H372.2C371.931 231.735 371.712 231.953 371.712 232.223V233.603C371.712 233.873 371.931 234.092 372.2 234.092H375.152C375.422 234.092 375.641 233.873 375.641 233.603V232.223C375.641 231.953 375.422 231.735 375.152 231.735Z" fill="#E6E6E6"/>
<path d="M383.009 231.735H380.057C379.787 231.735 379.569 231.953 379.569 232.223V233.603C379.569 233.873 379.787 234.092 380.057 234.092H383.009C383.279 234.092 383.497 233.873 383.497 233.603V232.223C383.497 231.953 383.279 231.735 383.009 231.735Z" fill="#E6E6E6"/>
<path d="M390.866 231.735H387.914C387.644 231.735 387.426 231.953 387.426 232.223V233.603C387.426 233.873 387.644 234.092 387.914 234.092H390.866C391.136 234.092 391.354 233.873 391.354 233.603V232.223C391.354 231.953 391.136 231.735 390.866 231.735Z" fill="#E6E6E6"/>
<path d="M398.723 231.735H395.771C395.501 231.735 395.282 231.953 395.282 232.223V233.603C395.282 233.873 395.501 234.092 395.771 234.092H398.723C398.992 234.092 399.211 233.873 399.211 233.603V232.223C399.211 231.953 398.992 231.735 398.723 231.735Z" fill="#E6E6E6"/>
<path d="M406.579 231.735H403.627C403.358 231.735 403.139 231.953 403.139 232.223V233.603C403.139 233.873 403.358 234.092 403.627 234.092H406.579C406.849 234.092 407.068 233.873 407.068 233.603V232.223C407.068 231.953 406.849 231.735 406.579 231.735Z" fill="#E6E6E6"/>
<path d="M414.436 231.735H411.484C411.215 231.735 410.996 231.953 410.996 232.223V233.603C410.996 233.873 411.215 234.092 411.484 234.092H414.436C414.706 234.092 414.924 233.873 414.924 233.603V232.223C414.924 231.953 414.706 231.735 414.436 231.735Z" fill="#E6E6E6"/>
<path d="M422.293 231.735H419.341C419.071 231.735 418.853 231.953 418.853 232.223V233.603C418.853 233.873 419.071 234.092 419.341 234.092H422.293C422.563 234.092 422.781 233.873 422.781 233.603V232.223C422.781 231.953 422.563 231.735 422.293 231.735Z" fill="#E6E6E6"/>
<path d="M430.15 231.735H427.198C426.928 231.735 426.709 231.953 426.709 232.223V233.603C426.709 233.873 426.928 234.092 427.198 234.092H430.15C430.419 234.092 430.638 233.873 430.638 233.603V232.223C430.638 231.953 430.419 231.735 430.15 231.735Z" fill="#E6E6E6"/>
<path d="M438.007 231.735H435.055C434.785 231.735 434.566 231.953 434.566 232.223V233.603C434.566 233.873 434.785 234.092 435.055 234.092H438.007C438.276 234.092 438.495 233.873 438.495 233.603V232.223C438.495 231.953 438.276 231.735 438.007 231.735Z" fill="#E6E6E6"/>
<path d="M445.863 231.735H442.911C442.642 231.735 442.423 231.953 442.423 232.223V233.603C442.423 233.873 442.642 234.092 442.911 234.092H445.863C446.133 234.092 446.352 233.873 446.352 233.603V232.223C446.352 231.953 446.133 231.735 445.863 231.735Z" fill="#E6E6E6"/>
<path d="M453.72 231.735H450.768C450.498 231.735 450.28 231.953 450.28 232.223V233.603C450.28 233.873 450.498 234.092 450.768 234.092H453.72C453.99 234.092 454.208 233.873 454.208 233.603V232.223C454.208 231.953 453.99 231.735 453.72 231.735Z" fill="#E6E6E6"/>
<path d="M461.577 231.735H458.625C458.355 231.735 458.137 231.953 458.137 232.223V233.603C458.137 233.873 458.355 234.092 458.625 234.092H461.577C461.847 234.092 462.065 233.873 462.065 233.603V232.223C462.065 231.953 461.847 231.735 461.577 231.735Z" fill="#E6E6E6"/>
<path d="M469.434 231.735H466.482C466.212 231.735 465.993 231.953 465.993 232.223V233.603C465.993 233.873 466.212 234.092 466.482 234.092H469.434C469.703 234.092 469.922 233.873 469.922 233.603V232.223C469.922 231.953 469.703 231.735 469.434 231.735Z" fill="#E6E6E6"/>
<path d="M416.793 236.449H386.343C386.073 236.449 385.854 236.667 385.854 236.937V238.318C385.854 238.587 386.073 238.806 386.343 238.806H416.793C417.063 238.806 417.282 238.587 417.282 238.318V236.937C417.282 236.667 417.063 236.449 416.793 236.449Z" fill="#E6E6E6"/>
<path d="M503.881 46.6143H303.28C303.071 46.6097 302.873 46.5236 302.727 46.3745C302.581 46.2254 302.5 46.0251 302.5 45.8165C302.5 45.608 302.581 45.4077 302.727 45.2586C302.873 45.1095 303.071 45.0234 303.28 45.0188H503.881C504.09 45.0234 504.288 45.1095 504.434 45.2586C504.58 45.4077 504.662 45.608 504.662 45.8165C504.662 46.0251 504.58 46.2254 504.434 46.3745C504.288 46.5236 504.09 46.6097 503.881 46.6143Z" fill="#CACACA"/>
<path d="M316.935 40.9458C319.517 40.9458 321.61 38.806 321.61 36.1665C321.61 33.527 319.517 31.3872 316.935 31.3872C314.353 31.3872 312.26 33.527 312.26 36.1665C312.26 38.806 314.353 40.9458 316.935 40.9458Z" fill="#CCCCCC"/>
<path d="M333.085 40.9458C335.667 40.9458 337.76 38.806 337.76 36.1665C337.76 33.527 335.667 31.3872 333.085 31.3872C330.503 31.3872 328.41 33.527 328.41 36.1665C328.41 38.806 330.503 40.9458 333.085 40.9458Z" fill="#CCCCCC"/>
<path d="M349.236 40.9458C351.818 40.9458 353.911 38.806 353.911 36.1665C353.911 33.527 351.818 31.3872 349.236 31.3872C346.654 31.3872 344.561 33.527 344.561 36.1665C344.561 38.806 346.654 40.9458 349.236 40.9458Z" fill="#CCCCCC"/>
<path d="M494.157 32.5718H482.685C482.458 32.5763 482.241 32.6699 482.082 32.8323C481.923 32.9947 481.833 33.213 481.833 33.4404C481.833 33.6679 481.923 33.8862 482.082 34.0486C482.241 34.211 482.458 34.3045 482.685 34.3091H494.157C494.385 34.3045 494.601 34.211 494.76 34.0486C494.919 33.8862 495.009 33.6679 495.009 33.4404C495.009 33.213 494.919 32.9947 494.76 32.8323C494.601 32.6699 494.385 32.5763 494.157 32.5718V32.5718Z" fill="#CCCCCC"/>
<path d="M494.157 35.8323H482.685C482.458 35.8368 482.241 35.9304 482.082 36.0928C481.923 36.2552 481.833 36.4735 481.833 36.7009C481.833 36.9283 481.923 37.1467 482.082 37.3091C482.241 37.4715 482.458 37.565 482.685 37.5696H494.157C494.385 37.565 494.601 37.4715 494.76 37.3091C494.919 37.1467 495.009 36.9283 495.009 36.7009C495.009 36.4735 494.919 36.2552 494.76 36.0928C494.601 35.9304 494.385 35.8368 494.157 35.8323V35.8323Z" fill="#CCCCCC"/>
<path d="M494.157 39.0889H482.685C482.458 39.0934 482.241 39.187 482.082 39.3494C481.923 39.5118 481.833 39.7301 481.833 39.9575C481.833 40.1849 481.923 40.4033 482.082 40.5657C482.241 40.7281 482.458 40.8216 482.685 40.8262H494.157C494.385 40.8216 494.601 40.7281 494.76 40.5657C494.919 40.4033 495.009 40.1849 495.009 39.9575C495.009 39.7301 494.919 39.5118 494.76 39.3494C494.601 39.187 494.385 39.0934 494.157 39.0889V39.0889Z" fill="#CCCCCC"/>
<path d="M403.375 58.7099L402.727 56.8169L485.585 13.7649L486.232 15.6579L403.375 58.7099Z" fill="#3F3D56"/>
<path d="M653.375 138.452L652.727 136.559L702.585 93.7251L703.232 95.6171L653.375 138.452Z" fill="#1272E7"/>
<path d="M557.585 148.423L474.727 105.371L475.375 103.478L558.232 146.53L557.585 148.423Z" fill="#3F3D56"/>
<path d="M600 118.465L551.425 38.719L552.96 37.436L601.534 117.182L600 118.465Z" fill="#3F3D56"/>
<path d="M637.908 14.5539L590.601 14.3359V12.3359L637.908 12.5539V14.5539Z" fill="#1272E7"/>
<path d="M723.605 26.9595H670.605C667.157 26.9595 663.851 25.5898 661.413 23.1519C658.975 20.7139 657.605 17.4073 657.605 13.9595C657.605 10.5117 658.975 7.20506 661.413 4.76709C663.851 2.32912 667.157 0.959473 670.605 0.959473H723.605C727.053 0.959473 730.359 2.32912 732.797 4.76709C735.235 7.20506 736.605 10.5117 736.605 13.9595C736.605 17.4073 735.235 20.7139 732.797 23.1519C730.359 25.5898 727.053 26.9595 723.605 26.9595Z" fill="#3AA8F0"/>
<path d="M789.605 102.959H736.605C733.157 102.959 729.851 101.59 727.413 99.1519C724.975 96.7139 723.605 93.4073 723.605 89.9595C723.605 86.5117 724.975 83.2051 727.413 80.7671C729.851 78.3291 733.157 76.9595 736.605 76.9595H789.605C793.053 76.9595 796.359 78.3291 798.797 80.7671C801.235 83.2051 802.605 86.5117 802.605 89.9595C802.605 93.4073 801.235 96.7139 798.797 99.1519C796.359 101.59 793.053 102.959 789.605 102.959V102.959Z" fill="#E1A793"/>
<path d="M703.908 156.553L656.601 156.336V154.336L703.908 154.553V156.553Z" fill="#1272E7"/>
<path d="M789.605 168.959H736.605C733.157 168.959 729.851 167.59 727.413 165.152C724.975 162.714 723.605 159.407 723.605 155.959C723.605 152.512 724.975 149.205 727.413 146.767C729.851 144.329 733.157 142.959 736.605 142.959H789.605C793.053 142.959 796.359 144.329 798.797 146.767C801.235 149.205 802.605 152.512 802.605 155.959C802.605 159.407 801.235 162.714 798.797 165.152C796.359 167.59 793.053 168.959 789.605 168.959V168.959Z" fill="#2C84C7"/>
<path d="M634.605 160H581.605C578.157 160 574.851 158.63 572.413 156.192C569.975 153.754 568.605 150.448 568.605 147C568.605 143.552 569.975 140.246 572.413 137.808C574.851 135.37 578.157 134 581.605 134H634.605C638.053 134 641.359 135.37 643.797 137.808C646.235 140.246 647.605 143.552 647.605 147C647.605 150.448 646.235 153.754 643.797 156.192C641.359 158.63 638.053 160 634.605 160V160Z" fill="#E24C32"/>
<path d="M562.605 26H509.605C506.157 26 502.851 24.6304 500.413 22.1924C497.975 19.7544 496.605 16.4478 496.605 13C496.605 9.55219 497.975 6.24559 500.413 3.80762C502.851 1.36964 506.157 1.45314e-07 509.605 0H562.605C566.053 1.45314e-07 569.359 1.36964 571.797 3.80762C574.235 6.24559 575.605 9.55219 575.605 13C575.605 16.4478 574.235 19.7544 571.797 22.1924C569.359 24.6304 566.053 26 562.605 26V26Z" fill="#E3E3E3"/>
<path d="M309.277 249.18H249.277C247.155 249.18 245.12 250.023 243.62 251.523C242.119 253.024 241.277 255.058 241.277 257.18C241.277 259.302 242.119 261.337 243.62 262.837C245.12 264.337 247.155 265.18 249.277 265.18H271.277V327.18H287.277V265.18H309.277C311.398 265.18 313.433 264.337 314.933 262.837C316.434 261.337 317.277 259.302 317.277 257.18C317.277 255.058 316.434 253.024 314.933 251.523C313.433 250.023 311.398 249.18 309.277 249.18Z" fill="#2F2E41"/>
<path d="M348.878 361.517H188.395C172.837 361.46 157.818 355.808 146.083 345.593C134.348 335.379 126.68 321.283 124.478 305.881L118.798 284.986C107.04 241.685 89.1301 200.296 65.6162 162.083C54.8689 144.629 49.3373 127.734 61.9014 111.467C62.0084 111.329 62.1136 111.192 62.217 111.058C72.2942 97.9414 122.451 95.1021 138.802 94.5498C139.448 94.5278 140.097 94.5169 140.748 94.5171H240.567C241.218 94.5171 241.866 94.528 242.511 94.5498C251.326 94.8068 259.907 97.4451 267.343 102.185C274.779 106.925 280.793 113.589 284.748 121.471C288.967 129.518 290.93 138.557 290.427 147.63C289.924 156.702 286.975 165.469 281.892 173C246.828 225.671 236.093 258.698 247.084 280.085C257.715 300.773 290.304 311.35 349.642 313.371C365.589 313.914 372.907 326.331 372.958 337.637C373.008 348.652 365.972 360.813 350.405 361.485C349.9 361.506 349.39 361.517 348.878 361.517Z" fill="#E1A793"/>
<path d="M215.657 504.017H275.657C277.779 504.017 279.814 503.174 281.314 501.674C282.814 500.174 283.657 498.139 283.657 496.017C283.657 493.895 282.814 491.861 281.314 490.36C279.814 488.86 277.779 488.017 275.657 488.017H253.657V353.017H237.657V488.017H215.657C213.535 488.017 211.501 488.86 210 490.36C208.5 491.861 207.657 493.895 207.657 496.017C207.657 498.139 208.5 500.174 210 501.674C211.501 503.174 213.535 504.017 215.657 504.017Z" fill="#3F3D56"/>
<path d="M269.963 449.592L280.299 455.206L307.661 417.375L292.405 409.088L269.963 449.592Z" fill="#A0616A"/>
<path d="M274.938 436.111L293.702 441.987L290.716 449.848L303.582 468.522C304.218 469.445 304.542 470.546 304.508 471.666C304.473 472.785 304.081 473.864 303.39 474.746C302.699 475.627 301.744 476.264 300.665 476.564C299.585 476.864 298.439 476.811 297.392 476.413L275.548 468.115L274.737 458.908L270.312 466.125L262.076 462.996L274.938 436.111Z" fill="#2F2E41"/>
<path d="M296.078 68.0755C296.323 69.7557 296.197 71.4691 295.708 73.0952C295.22 74.7213 294.38 76.2204 293.249 77.487C292.119 78.7536 290.724 79.7569 289.163 80.4261C287.603 81.0953 285.914 81.4143 284.217 81.3604L244.366 166.156L231.867 148.726L272.891 68.5449C273.17 65.6999 274.484 63.0562 276.582 61.1147C278.68 59.1733 281.418 58.069 284.276 58.0112C287.134 57.9533 289.914 58.9459 292.09 60.8008C294.265 62.6557 295.684 65.2441 296.078 68.0755V68.0755Z" fill="#A0616A"/>
<path d="M163.829 183.301C163.829 183.301 162.761 198.114 179.514 201.02C196.267 203.925 241.053 175.605 248.408 171.256C255.763 166.908 269.47 112.196 269.47 112.196L257.55 92.0337C242.832 110.651 231.275 127.818 230.573 140.004L163.829 183.301Z" fill="white"/>
<path d="M183.169 234.327L186.787 249.873C186.787 249.873 186.823 264.208 189.362 266.851C191.883 269.482 247.317 264.2 247.317 264.2C247.317 264.2 241.44 241.1 241.518 223.622L183.169 234.327Z" fill="#A0616A"/>
<path d="M175.114 135.904L197.975 134.554C198.939 134.498 199.897 134.743 200.715 135.256C201.533 135.769 202.17 136.525 202.539 137.418L208.999 153.079L235.849 175.271C235.849 175.271 246.48 188.799 246.505 206.271C246.53 223.742 250.276 264.18 250.276 264.18C250.276 264.18 234.761 242.342 225.185 248.15C223.556 249.138 222.983 251.159 221.276 252.18C220.425 252.69 218.459 252.195 217.599 252.705C204.403 260.538 190.641 268.191 189.355 266.849C186.831 264.215 183.768 250.752 183.768 250.752L162.842 173.865C161.707 169.819 161.482 165.573 162.182 161.43C162.882 157.287 164.49 153.351 166.891 149.903C168.353 147.845 169.885 146.313 171.308 146.06C174.504 145.379 172.804 138.216 175.114 135.904Z" fill="white"/>
<path d="M369.583 482.16L379.233 475.451L357.372 434.207L343.13 444.109L369.583 482.16Z" fill="#A0616A"/>
<path d="M371.042 454.486L355.918 468.005C331.87 441.209 313.691 403.629 298.285 360.952C257.919 349.13 227.478 330.064 200.903 307.425C191.887 299.797 185.129 289.997 192.818 280.704C193.178 280.27 193.553 279.85 193.944 279.444C203.022 270.114 226.045 271.892 239.529 263.344L269.65 295.541L267.755 304.172L324.333 323.337C327.055 324.291 329.561 325.775 331.707 327.702C333.853 329.63 335.597 331.963 336.836 334.568C338.076 337.173 338.788 339.997 338.931 342.878C339.073 345.759 338.644 348.64 337.668 351.354C337.456 351.968 337.218 352.572 336.955 353.165L371.042 454.486Z" fill="#3AA8F0"/>
<path d="M363.957 479.44L379.404 467.275L384.204 474.18L406.882 474.111C408.002 474.108 409.094 474.462 409.998 475.123C410.902 475.784 411.572 476.717 411.908 477.785C412.245 478.853 412.231 480.001 411.869 481.061C411.507 482.121 410.816 483.038 409.896 483.677L390.71 497.015L382.655 492.484L386.111 500.211L378.877 505.24L363.957 479.44Z" fill="#2F2E41"/>
<path d="M179.115 156.811C179.115 156.811 167.012 148.203 155.826 161.009C144.641 173.815 145.575 226.796 145.47 235.339C145.437 238.015 149.3 243.788 154.623 250.456C157.012 253.45 159.696 256.624 162.453 259.779C164.049 261.605 162.674 265.406 164.276 267.18C165.87 268.945 170.441 268.685 171.956 270.323C179.15 278.098 184.995 284.017 184.995 284.017L208.415 284.305C208.679 266.895 196.757 251.354 181.439 236.335L179.115 156.811Z" fill="white"/>
<path d="M155.508 81.0077C153.291 82.6081 150.958 84.2568 148.252 84.6534C145.547 85.0499 142.379 83.742 141.63 81.112C140.715 77.8962 143.619 74.9682 146.229 72.8783L154.505 66.2514C156.02 64.9073 157.731 63.8011 159.579 62.9707C160.507 62.5623 161.515 62.3678 162.528 62.4017C163.541 62.4356 164.534 62.6969 165.433 63.1664C166.322 63.767 167.043 64.5854 167.527 65.5435C168.011 66.5016 168.241 67.5676 168.196 68.6399C168.078 70.7891 167.369 72.864 166.146 74.6357C164.61 77.0303 162.605 79.0893 160.252 80.6887C157.899 82.2881 155.247 83.3949 152.455 83.9425" fill="#2F2E41"/>
<path d="M159.184 64.2236C159.425 58.2254 153.034 53.4759 147.044 53.8514C141.055 54.2269 135.906 58.4398 132.509 63.3891C129.114 68.3343 127.074 74.0622 124.399 79.4314C121.724 84.8007 118.161 90.0578 112.846 92.8402C107.531 95.6184 100.133 95.1227 96.4593 90.3792C95.3171 92.1113 94.599 94.0883 94.3633 96.1497C94.1276 98.2112 94.381 100.299 95.1027 102.244C96.6066 106.139 99.4112 109.393 103.041 111.455C104.486 112.312 106.029 112.991 107.637 113.476C108.3 111.687 109.233 110.009 110.403 108.501C109.874 110.286 109.673 112.152 109.807 114.008C112.286 114.483 114.836 114.443 117.298 113.89C119.716 113.349 121.974 112.252 123.894 110.687C125.815 109.121 127.343 107.129 128.36 104.869C130.606 99.5512 129.462 93.4881 129.942 87.7358C130.419 81.9823 133.885 75.4144 139.658 75.3206C144.055 75.2483 143.473 75.6108 146.258 79.0124" fill="#2F2E41"/>
<path d="M199.105 95.7419C199.105 102.638 196.366 109.251 191.49 114.127C186.614 119.003 180.001 121.742 173.105 121.742C158.746 121.742 145.105 105.101 145.105 90.7419C145.105 76.3825 158.746 69.7419 173.105 69.7419C180.001 69.7419 186.614 72.4812 191.49 77.3571C196.366 82.2331 199.105 88.8463 199.105 95.7419V95.7419Z" fill="#2F2E41"/>
<path d="M185.917 126.9C199.339 124.154 207.993 111.047 205.246 97.6257C202.5 84.2044 189.394 75.5504 175.972 78.2967C162.551 81.043 153.897 94.1495 156.643 107.571C159.389 120.992 172.496 129.646 185.917 126.9Z" fill="#A0616A"/>
<path d="M212.105 98.7419C204.762 100.747 197.348 102.849 194.485 98.7419C193.929 96.019 192.874 93.4221 191.375 91.0819C191.093 93.7027 190.478 96.2767 189.545 98.7419C180.268 100.758 171.597 101.24 164.105 98.7419C163.075 100.605 162.477 102.676 162.355 104.802C161.984 104.569 161.597 104.365 161.195 104.192C160.957 104.057 160.693 103.975 160.42 103.951C160.148 103.927 159.873 103.961 159.615 104.052C159.437 104.16 159.286 104.307 159.173 104.482C159.06 104.657 158.989 104.855 158.965 105.062C158.915 105.479 158.936 105.902 159.025 106.312C159.13 107.742 159.557 109.13 160.275 110.372C160.559 110.8 160.929 111.164 161.361 111.441C161.793 111.718 162.278 111.902 162.785 111.982C163.825 117.832 172.105 125.742 172.105 125.742C147.105 126.742 147.105 109.782 147.105 93.7419L150.105 87.7419H160.105V74.7419H188.105C194.47 74.7436 200.573 77.2727 205.074 81.7732C209.574 86.2737 212.103 92.3773 212.105 98.7419V98.7419Z" fill="#2F2E41"/>
<path d="M439.941 506.911L1.19072 507.219C1.03407 507.219 0.878868 507.189 0.734009 507.129C0.589149 507.069 0.457489 506.982 0.346558 506.871C0.235626 506.761 0.147609 506.629 0.0875549 506.484C0.0275012 506.34 -0.00341797 506.185 -0.00341797 506.028C-0.00341797 505.871 0.0275012 505.716 0.0875549 505.572C0.147609 505.427 0.235626 505.295 0.346558 505.185C0.457489 505.074 0.589149 504.987 0.734009 504.927C0.878868 504.867 1.03407 504.837 1.19072 504.837L439.941 504.53C440.257 504.53 440.559 504.655 440.783 504.879C441.006 505.102 441.131 505.405 441.131 505.721C441.131 506.036 441.006 506.339 440.783 506.563C440.559 506.786 440.257 506.911 439.941 506.911Z" fill="#CACACA"/>
<path d="M732.941 506.911L506.191 507.219C506.034 507.219 505.879 507.189 505.734 507.129C505.589 507.069 505.457 506.982 505.347 506.871C505.236 506.761 505.148 506.629 505.088 506.484C505.027 506.34 504.997 506.185 504.997 506.028C504.997 505.871 505.027 505.716 505.088 505.572C505.148 505.427 505.236 505.295 505.347 505.185C505.457 505.074 505.589 504.987 505.734 504.927C505.879 504.867 506.034 504.837 506.191 504.837L732.941 504.53C733.257 504.53 733.559 504.655 733.783 504.879C734.006 505.102 734.131 505.405 734.131 505.721C734.131 506.036 734.006 506.339 733.783 506.563C733.559 506.786 733.257 506.911 732.941 506.911Z" fill="#CACACA"/>
<path d="M449.968 148H364.015C360.429 147.996 356.992 146.57 354.457 144.035C351.921 141.499 350.495 138.062 350.491 134.477V77.5235C350.495 73.9381 351.922 70.5006 354.457 67.9654C356.992 65.4301 360.429 64.004 364.015 64H449.968C453.553 64.004 456.991 65.4301 459.526 67.9654C462.061 70.5006 463.487 73.9381 463.491 77.5235V134.477C463.487 138.062 462.061 141.499 459.526 144.035C456.991 146.57 453.553 147.996 449.968 148ZM364.015 66C360.96 66.0035 358.031 67.2187 355.87 69.379C353.71 71.5393 352.495 74.4683 352.491 77.5235V134.477C352.495 137.532 353.71 140.461 355.87 142.621C358.031 144.781 360.96 145.997 364.015 146H449.968C453.023 145.997 455.952 144.781 458.112 142.621C460.273 140.461 461.488 137.532 461.491 134.477V77.5235C461.488 74.4683 460.273 71.5393 458.112 69.379C455.952 67.2187 453.023 66.0035 449.968 66H364.015Z" fill="#2F2E41"/>
<path d="M443.991 142H421V144H443.991V142Z" fill="#2F2E41"/>
<path d="M417.491 90H366.491V92H417.491V90Z" fill="#2F2E41"/>
<path d="M417.491 97H366.491V99H417.491V97Z" fill="#2F2E41"/>
<path d="M431.491 104H366.491V106H431.491V104Z" fill="#2F2E41"/>
<path d="M400.491 111H366.491V113H400.491V111Z" fill="#2F2E41"/>
<path d="M428.491 118H366.491V120H428.491V118Z" fill="#2F2E41"/>
<path d="M377.491 125H366.491V127H377.491V125Z" fill="#DAA45C"/>
<path d="M187.99 263.432C209.79 256.013 230.437 253.937 249.3 260.423C249.35 260.522 249.421 260.657 249.513 260.823C249.719 261.194 250.029 261.718 250.454 262.343C251.303 263.593 252.612 265.249 254.456 266.884C258.15 270.161 263.983 273.341 272.52 273C280.852 272.666 292.924 274.235 302.946 275.896C307.949 276.726 312.43 277.576 315.66 278.22C317.275 278.541 318.577 278.811 319.474 279C319.923 279.095 320.271 279.169 320.507 279.22C320.624 279.245 320.714 279.265 320.774 279.278L320.842 279.293L320.859 279.296L320.863 279.297L320.864 279.298C320.865 279.298 320.865 279.298 320.972 278.809L320.865 279.298L320.947 279.316L321.032 279.306C323.833 278.971 326.673 279.194 329.388 279.962C332.103 280.729 334.639 282.027 336.851 283.779C339.062 285.532 340.904 287.705 342.272 290.173C343.639 292.641 344.505 295.355 344.819 298.159L344.82 298.164C344.895 298.774 344.945 299.386 344.97 300C338.975 328.1 332.62 354.776 325.302 377.704C318.04 400.455 309.843 419.476 300.136 432.533L280.773 421.883C280.645 409.025 284.427 393.886 290.56 377.362C296.737 360.72 305.281 342.714 314.563 324.273L315.008 323.387L314.031 323.555C272.533 330.692 233.444 332.966 199.663 324.354C194.228 322.919 189.576 319.402 186.713 314.565C183.849 309.727 183.003 303.957 184.359 298.501L184.36 298.497C184.489 297.962 184.638 297.432 184.807 296.908C186.591 291.464 185.882 286.873 185.195 282.426C185.084 281.708 184.973 280.993 184.874 280.28C184.167 275.193 183.989 270.026 187.99 263.432Z" fill="#3AA8F0" stroke="black"/>
<path d="M218.277 253.18H158.277C156.155 253.18 154.12 254.023 152.62 255.523C151.119 257.024 150.277 259.058 150.277 261.18C150.277 263.302 151.119 265.337 152.62 266.837C154.12 268.337 156.155 269.18 158.277 269.18H180.277V331.18H196.277V269.18H218.277C220.398 269.18 222.433 268.337 223.933 266.837C225.434 265.337 226.277 263.302 226.277 261.18C226.277 259.058 225.434 257.024 223.933 255.523C222.433 254.023 220.398 253.18 218.277 253.18V253.18Z" fill="#2F2E41"/>
<path d="M208.872 329.673C207.309 329.01 205.911 328.012 204.775 326.749C203.639 325.487 202.795 323.991 202.3 322.367C201.805 320.742 201.672 319.029 201.911 317.348C202.15 315.667 202.754 314.059 203.682 312.637L151.927 234.535L173.314 232.909L220.516 309.616C222.802 311.333 224.379 313.828 224.948 316.63C225.517 319.431 225.038 322.344 223.603 324.816C222.167 327.289 219.875 329.149 217.16 330.044C214.445 330.939 211.496 330.807 208.872 329.673V329.673Z" fill="#A0616A"/>
</g>
<defs>
<clipPath id="clip0_1015_4323">
<rect width="802.605" height="507.219" fill="white"/>
</clipPath>
</defs>
</svg>
